<svg width="588" height="667" viewBox="0 0 588 667" fill="none" xmlns="http://www.w3.org/2000/svg">
<path d="M500.569 661.405C495.526 661.405 491.437 657.339 491.437 652.324C491.437 647.308 495.526 643.243 500.569 643.243C505.612 643.243 509.701 647.308 509.701 652.324C509.701 657.323 505.612 661.405 500.569 661.405Z" stroke="#1C1D21" stroke-width="3" stroke-miterlimit="10" stroke-linecap="round" stroke-linejoin="round"/>
<path d="M494.269 658.888L487.811 665.294" stroke="#1C1D21" stroke-width="3" stroke-miterlimit="10" stroke-linecap="round" stroke-linejoin="round"/>
<path d="M329.217 2L319.609 11.5541" stroke="#1C1D21" stroke-width="3" stroke-miterlimit="10" stroke-linecap="round" stroke-linejoin="round"/>
<path d="M329.217 11.5541L319.609 2" stroke="#1C1D21" stroke-width="3" stroke-miterlimit="10" stroke-linecap="round" stroke-linejoin="round"/>
<path d="M315.461 576.763L305.854 586.317" stroke="#1C1D21" stroke-width="3" stroke-miterlimit="10" stroke-linecap="round" stroke-linejoin="round"/>
<path d="M315.461 586.317L305.854 576.763" stroke="#1C1D21" stroke-width="3" stroke-miterlimit="10" stroke-linecap="round" stroke-linejoin="round"/>
<path d="M15.4307 187.274L1.84411 187.274" stroke="#1C1D21" stroke-width="3" stroke-miterlimit="10" stroke-linecap="round" stroke-linejoin="round"/>
<path d="M8.63898 194.046L8.63898 180.52" stroke="#1C1D21" stroke-width="3" stroke-miterlimit="10" stroke-linecap="round" stroke-linejoin="round"/>
<path d="M412.866 138.422C408.316 138.422 404.609 134.752 404.609 130.211C404.609 125.686 408.3 122 412.866 122C417.416 122 421.123 125.67 421.123 130.211C421.107 134.752 417.416 138.422 412.866 138.422Z" stroke="#1C1D21" stroke-width="3" stroke-miterlimit="10" stroke-linecap="round" stroke-linejoin="round"/>
<path d="M577.743 345.169C573.193 345.169 569.486 341.499 569.486 336.958C569.486 332.434 573.177 328.747 577.743 328.747C582.293 328.747 586 332.418 586 336.958C585.984 341.499 582.293 345.169 577.743 345.169Z" stroke="#1C1D21" stroke-width="3" stroke-miterlimit="10" stroke-linecap="round" stroke-linejoin="round"/>
<path d="M58.5915 471.906C54.0414 471.906 50.3345 468.236 50.3345 463.695C50.3345 459.17 54.0255 455.484 58.5915 455.484C63.1416 455.484 66.8485 459.155 66.8485 463.695C66.8326 468.236 63.1416 471.906 58.5915 471.906Z" stroke="#1C1D21" stroke-width="3" stroke-miterlimit="10" stroke-linecap="round" stroke-linejoin="round"/>
<path d="M157.224 23.2467C157.224 24.8891 158.562 26.2205 160.214 26.2205C161.866 26.2205 163.204 24.8891 163.204 23.2467C163.204 21.6043 161.866 20.2729 160.214 20.2729C158.562 20.2729 157.224 21.6043 157.224 23.2467Z" fill="#CDAEF4"/>
<path d="M157.224 44.0199C157.224 45.6623 158.562 46.9937 160.214 46.9937C161.866 46.9937 163.204 45.6623 163.204 44.0199C163.204 42.3776 161.866 41.0461 160.214 41.0461C158.562 41.0461 157.224 42.3776 157.224 44.0199Z" fill="#CDAEF4"/>
<path d="M157.224 64.7744C157.224 66.4168 158.562 67.7482 160.214 67.7482C161.866 67.7482 163.204 66.4168 163.204 64.7744C163.204 63.132 161.866 61.8006 160.214 61.8006C158.562 61.8006 157.224 63.132 157.224 64.7744Z" fill="#CDAEF4"/>
<path d="M157.224 85.5447C157.224 87.1871 158.562 88.5185 160.214 88.5185C161.866 88.5185 163.204 87.1871 163.204 85.5447C163.204 83.9023 161.866 82.5709 160.214 82.5709C158.562 82.5709 157.224 83.9023 157.224 85.5447Z" fill="#CDAEF4"/>
<path d="M157.224 106.301C157.224 107.943 158.562 109.275 160.214 109.275C161.866 109.275 163.204 107.943 163.204 106.301C163.204 104.659 161.866 103.327 160.214 103.327C158.562 103.327 157.224 104.659 157.224 106.301Z" fill="#CDAEF4"/>
<path d="M157.224 127.071C157.224 128.714 158.562 130.045 160.214 130.045C161.866 130.045 163.204 128.714 163.204 127.071C163.204 125.429 161.866 124.098 160.214 124.098C158.562 124.098 157.224 125.429 157.224 127.071Z" fill="#CDAEF4"/>
<path d="M136.35 23.2469C136.35 24.8893 137.689 26.2207 139.341 26.2207C140.992 26.2207 142.331 24.8893 142.331 23.2469C142.331 21.6045 140.992 20.2731 139.341 20.2731C137.689 20.2731 136.35 21.6045 136.35 23.2469Z" fill="#CDAEF4"/>
<path d="M136.35 44.0199C136.35 45.6623 137.689 46.9937 139.341 46.9937C140.992 46.9937 142.331 45.6623 142.331 44.0199C142.331 42.3776 140.992 41.0461 139.341 41.0461C137.689 41.0461 136.35 42.3776 136.35 44.0199Z" fill="#CDAEF4"/>
<path d="M136.35 64.7744C136.35 66.4168 137.689 67.7482 139.341 67.7482C140.992 67.7482 142.331 66.4168 142.331 64.7744C142.331 63.132 140.992 61.8006 139.341 61.8006C137.689 61.8006 136.35 63.132 136.35 64.7744Z" fill="#CDAEF4"/>
<path d="M136.35 85.5447C136.35 87.1871 137.689 88.5185 139.341 88.5185C140.992 88.5185 142.331 87.1871 142.331 85.5447C142.331 83.9023 140.992 82.5709 139.341 82.5709C137.689 82.5709 136.35 83.9023 136.35 85.5447Z" fill="#CDAEF4"/>
<path d="M136.35 106.301C136.35 107.943 137.689 109.275 139.341 109.275C140.992 109.275 142.331 107.943 142.331 106.301C142.331 104.659 140.992 103.327 139.341 103.327C137.689 103.327 136.35 104.659 136.35 106.301Z" fill="#CDAEF4"/>
<path d="M136.35 127.071C136.35 128.714 137.689 130.045 139.341 130.045C140.992 130.045 142.331 128.714 142.331 127.071C142.331 125.429 140.992 124.098 139.341 124.098C137.689 124.098 136.35 125.429 136.35 127.071Z" fill="#CDAEF4"/>
<path d="M115.461 23.2469C115.461 24.8893 116.8 26.2207 118.452 26.2207C120.103 26.2207 121.442 24.8893 121.442 23.2469C121.442 21.6045 120.103 20.2731 118.452 20.2731C116.8 20.2731 115.461 21.6045 115.461 23.2469Z" fill="#CDAEF4"/>
<path d="M115.461 44.0199C115.461 45.6623 116.8 46.9937 118.452 46.9937C120.103 46.9937 121.442 45.6623 121.442 44.0199C121.442 42.3776 120.103 41.0461 118.452 41.0461C116.8 41.0461 115.461 42.3776 115.461 44.0199Z" fill="#CDAEF4"/>
<path d="M115.461 64.7744C115.461 66.4168 116.8 67.7482 118.452 67.7482C120.103 67.7482 121.442 66.4168 121.442 64.7744C121.442 63.132 120.103 61.8006 118.452 61.8006C116.8 61.8006 115.461 63.132 115.461 64.7744Z" fill="#CDAEF4"/>
<path d="M115.461 85.5447C115.461 87.1871 116.8 88.5185 118.452 88.5185C120.103 88.5185 121.442 87.1871 121.442 85.5447C121.442 83.9023 120.103 82.5709 118.452 82.5709C116.8 82.5709 115.461 83.9023 115.461 85.5447Z" fill="#CDAEF4"/>
<path d="M115.461 106.301C115.461 107.943 116.8 109.275 118.452 109.275C120.103 109.275 121.442 107.943 121.442 106.301C121.442 104.659 120.103 103.327 118.452 103.327C116.8 103.327 115.461 104.659 115.461 106.301Z" fill="#CDAEF4"/>
<path d="M115.461 127.071C115.461 128.714 116.8 130.045 118.452 130.045C120.103 130.045 121.442 128.714 121.442 127.071C121.442 125.429 120.103 124.098 118.452 124.098C116.8 124.098 115.461 125.429 115.461 127.071Z" fill="#CDAEF4"/>
<path d="M94.5883 23.2469C94.5883 24.8893 95.9272 26.2207 97.5787 26.2207C99.2303 26.2207 100.569 24.8893 100.569 23.2469C100.569 21.6045 99.2303 20.2731 97.5787 20.2731C95.9272 20.2731 94.5883 21.6045 94.5883 23.2469Z" fill="#CDAEF4"/>
<path d="M94.5883 44.0199C94.5883 45.6623 95.9272 46.9937 97.5787 46.9937C99.2303 46.9937 100.569 45.6623 100.569 44.0199C100.569 42.3776 99.2303 41.0461 97.5787 41.0461C95.9272 41.0461 94.5883 42.3776 94.5883 44.0199Z" fill="#CDAEF4"/>
<path d="M94.5883 64.7744C94.5883 66.4168 95.9272 67.7482 97.5787 67.7482C99.2303 67.7482 100.569 66.4168 100.569 64.7744C100.569 63.132 99.2303 61.8006 97.5787 61.8006C95.9272 61.8006 94.5883 63.132 94.5883 64.7744Z" fill="#CDAEF4"/>
<path d="M94.5883 85.5447C94.5883 87.1871 95.9272 88.5185 97.5787 88.5185C99.2303 88.5185 100.569 87.1871 100.569 85.5447C100.569 83.9023 99.2303 82.5709 97.5787 82.5709C95.9272 82.5709 94.5883 83.9023 94.5883 85.5447Z" fill="#CDAEF4"/>
<path d="M94.5883 106.301C94.5883 107.943 95.9272 109.275 97.5787 109.275C99.2303 109.275 100.569 107.943 100.569 106.301C100.569 104.659 99.2303 103.327 97.5787 103.327C95.9272 103.327 94.5883 104.659 94.5883 106.301Z" fill="#CDAEF4"/>
<path d="M94.5883 127.071C94.5883 128.714 95.9272 130.045 97.5787 130.045C99.2303 130.045 100.569 128.714 100.569 127.071C100.569 125.429 99.2303 124.098 97.5787 124.098C95.9272 124.098 94.5883 125.429 94.5883 127.071Z" fill="#CDAEF4"/>
<path d="M497.788 477.706C497.788 479.348 499.127 480.679 500.779 480.679C502.43 480.679 503.769 479.348 503.769 477.706C503.769 476.063 502.43 474.732 500.779 474.732C499.127 474.732 497.788 476.063 497.788 477.706Z" fill="#CDAEF4"/>
<path d="M497.789 498.461C497.789 500.103 499.128 501.434 500.78 501.434C502.431 501.434 503.77 500.103 503.77 498.461C503.77 496.818 502.431 495.487 500.78 495.487C499.128 495.487 497.789 496.818 497.789 498.461Z" fill="#CDAEF4"/>
<path d="M497.789 519.23C497.789 520.873 499.128 522.204 500.78 522.204C502.431 522.204 503.77 520.873 503.77 519.23C503.77 517.588 502.431 516.256 500.78 516.256C499.128 516.256 497.789 517.588 497.789 519.23Z" fill="#CDAEF4"/>
<path d="M476.9 477.704C476.9 479.346 478.239 480.677 479.891 480.677C481.542 480.677 482.881 479.346 482.881 477.704C482.881 476.061 481.542 474.73 479.891 474.73C478.239 474.73 476.9 476.061 476.9 477.704Z" fill="#CDAEF4"/>
<path d="M476.9 498.461C476.9 500.103 478.239 501.434 479.891 501.434C481.542 501.434 482.881 500.103 482.881 498.461C482.881 496.818 481.542 495.487 479.891 495.487C478.239 495.487 476.9 496.818 476.9 498.461Z" fill="#CDAEF4"/>
<path d="M476.9 519.228C476.9 520.871 478.239 522.202 479.891 522.202C481.542 522.202 482.881 520.871 482.881 519.228C482.881 517.586 481.542 516.255 479.891 516.255C478.239 516.255 476.9 517.586 476.9 519.228Z" fill="#CDAEF4"/>
<path d="M571.498 111.974C571.498 113.617 572.837 114.948 574.488 114.948C576.14 114.948 577.479 113.617 577.479 111.974C577.479 110.332 576.14 109.001 574.488 109.001C572.837 109.001 571.498 110.332 571.498 111.974Z" fill="#CDAEF4"/>
<path d="M571.498 132.728C571.498 134.37 572.837 135.702 574.489 135.702C576.14 135.702 577.479 134.37 577.479 132.728C577.479 131.086 576.14 129.754 574.489 129.754C572.837 129.754 571.498 131.086 571.498 132.728Z" fill="#CDAEF4"/>
<path d="M571.498 153.5C571.498 155.143 572.837 156.474 574.489 156.474C576.14 156.474 577.479 155.143 577.479 153.5C577.479 151.858 576.14 150.527 574.489 150.527C572.837 150.527 571.498 151.858 571.498 153.5Z" fill="#CDAEF4"/>
<path d="M550.609 111.974C550.609 113.616 551.948 114.948 553.599 114.948C555.251 114.948 556.59 113.616 556.59 111.974C556.59 110.331 555.251 109 553.599 109C551.948 109 550.609 110.331 550.609 111.974Z" fill="#CDAEF4"/>
<path d="M550.609 132.73C550.609 134.372 551.948 135.704 553.599 135.704C555.251 135.704 556.59 134.372 556.59 132.73C556.59 131.088 555.251 129.756 553.599 129.756C551.948 129.756 550.609 131.088 550.609 132.73Z" fill="#CDAEF4"/>
<path d="M550.609 153.5C550.609 155.143 551.948 156.474 553.599 156.474C555.251 156.474 556.59 155.143 556.59 153.5C556.59 151.858 555.251 150.526 553.599 150.526C551.948 150.526 550.609 151.858 550.609 153.5Z" fill="#CDAEF4"/>
<path d="M164.711 662.983C164.711 664.626 166.049 665.957 167.701 665.957C169.353 665.957 170.691 664.626 170.691 662.983C170.691 661.341 169.353 660.009 167.701 660.009C166.049 660.009 164.711 661.341 164.711 662.983Z" fill="#CDAEF4"/>
<path d="M143.822 662.983C143.822 664.626 145.16 665.957 146.812 665.957C148.464 665.957 149.802 664.626 149.802 662.983C149.802 661.341 148.464 660.009 146.812 660.009C145.16 660.009 143.822 661.341 143.822 662.983Z" fill="#CDAEF4"/>
<path d="M122.948 662.983C122.948 664.626 124.287 665.957 125.939 665.957C127.59 665.957 128.929 664.626 128.929 662.983C128.929 661.341 127.59 660.009 125.939 660.009C124.287 660.009 122.948 661.341 122.948 662.983Z" fill="#CDAEF4"/>
<path d="M102.059 662.983C102.059 664.626 103.398 665.957 105.05 665.957C106.701 665.957 108.04 664.626 108.04 662.983C108.04 661.341 106.701 660.009 105.05 660.009C103.398 660.009 102.059 661.341 102.059 662.983Z" fill="#CDAEF4"/>
<path d="M81.1862 662.983C81.1862 664.626 82.5251 665.957 84.1766 665.957C85.8282 665.957 87.1671 664.626 87.1671 662.983C87.1671 661.341 85.8282 660.009 84.1767 660.009C82.5251 660.009 81.1862 661.341 81.1862 662.983Z" fill="#CDAEF4"/>
<path d="M60.2971 662.983C60.2971 664.626 61.636 665.957 63.2876 665.957C64.9392 665.957 66.278 664.626 66.278 662.983C66.278 661.341 64.9392 660.009 63.2876 660.009C61.636 660.009 60.2971 661.341 60.2971 662.983Z" fill="#CDAEF4"/>
<path d="M39.4238 662.983C39.4238 664.626 40.7627 665.957 42.4143 665.957C44.0658 665.957 45.4047 664.626 45.4047 662.983C45.4047 661.341 44.0658 660.009 42.4143 660.009C40.7627 660.009 39.4238 661.341 39.4238 662.983Z" fill="#CDAEF4"/>
<path d="M164.711 642.212C164.711 643.854 166.049 645.186 167.701 645.186C169.353 645.186 170.691 643.854 170.691 642.212C170.691 640.57 169.353 639.238 167.701 639.238C166.049 639.238 164.711 640.57 164.711 642.212Z" fill="#CDAEF4"/>
<path d="M143.822 642.212C143.822 643.854 145.16 645.186 146.812 645.186C148.464 645.186 149.802 643.854 149.802 642.212C149.802 640.57 148.464 639.238 146.812 639.238C145.16 639.238 143.822 640.57 143.822 642.212Z" fill="#CDAEF4"/>
<path d="M122.948 642.212C122.948 643.854 124.287 645.186 125.939 645.186C127.59 645.186 128.929 643.854 128.929 642.212C128.929 640.57 127.59 639.238 125.939 639.238C124.287 639.238 122.948 640.57 122.948 642.212Z" fill="#CDAEF4"/>
<path d="M102.059 642.212C102.059 643.854 103.398 645.186 105.05 645.186C106.701 645.186 108.04 643.854 108.04 642.212C108.04 640.57 106.701 639.238 105.05 639.238C103.398 639.238 102.059 640.57 102.059 642.212Z" fill="#CDAEF4"/>
<path d="M81.1862 642.212C81.1862 643.854 82.525 645.186 84.1766 645.186C85.8282 645.186 87.1671 643.854 87.1671 642.212C87.1671 640.57 85.8282 639.238 84.1766 639.238C82.525 639.238 81.1862 640.57 81.1862 642.212Z" fill="#CDAEF4"/>
<path d="M60.2971 642.212C60.2971 643.854 61.636 645.186 63.2876 645.186C64.9392 645.186 66.278 643.854 66.278 642.212C66.278 640.57 64.9392 639.238 63.2876 639.238C61.636 639.238 60.2971 640.57 60.2971 642.212Z" fill="#CDAEF4"/>
<path d="M39.4238 642.212C39.4238 643.854 40.7627 645.186 42.4143 645.186C44.0658 645.186 45.4047 643.854 45.4047 642.212C45.4047 640.57 44.0658 639.238 42.4143 639.238C40.7627 639.238 39.4238 640.57 39.4238 642.212Z" fill="#CDAEF4"/>
<path d="M164.711 621.456C164.711 623.098 166.049 624.43 167.701 624.43C169.353 624.43 170.691 623.098 170.691 621.456C170.691 619.814 169.353 618.482 167.701 618.482C166.049 618.482 164.711 619.814 164.711 621.456Z" fill="#CDAEF4"/>
<path d="M143.822 621.456C143.822 623.098 145.16 624.43 146.812 624.43C148.464 624.43 149.802 623.098 149.802 621.456C149.802 619.814 148.464 618.482 146.812 618.482C145.16 618.482 143.822 619.814 143.822 621.456Z" fill="#CDAEF4"/>
<path d="M122.948 621.456C122.948 623.098 124.287 624.43 125.939 624.43C127.59 624.43 128.929 623.098 128.929 621.456C128.929 619.814 127.59 618.482 125.939 618.482C124.287 618.482 122.948 619.814 122.948 621.456Z" fill="#CDAEF4"/>
<path d="M102.059 621.456C102.059 623.098 103.398 624.43 105.05 624.43C106.701 624.43 108.04 623.098 108.04 621.456C108.04 619.814 106.701 618.482 105.05 618.482C103.398 618.482 102.059 619.814 102.059 621.456Z" fill="#CDAEF4"/>
<path d="M81.1862 621.456C81.1862 623.098 82.525 624.43 84.1766 624.43C85.8282 624.43 87.1671 623.098 87.1671 621.456C87.1671 619.814 85.8282 618.482 84.1766 618.482C82.525 618.482 81.1862 619.814 81.1862 621.456Z" fill="#CDAEF4"/>
<path d="M60.2971 621.456C60.2971 623.098 61.636 624.43 63.2876 624.43C64.9391 624.43 66.278 623.098 66.278 621.456C66.278 619.814 64.9391 618.482 63.2876 618.482C61.636 618.482 60.2971 619.814 60.2971 621.456Z" fill="#CDAEF4"/>
<path d="M39.4238 621.456C39.4238 623.098 40.7627 624.43 42.4143 624.43C44.0658 624.43 45.4047 623.098 45.4047 621.456C45.4047 619.814 44.0658 618.482 42.4143 618.482C40.7627 618.482 39.4238 619.814 39.4238 621.456Z" fill="#CDAEF4"/>
<path d="M164.708 600.686C164.708 602.328 166.047 603.66 167.699 603.66C169.351 603.66 170.689 602.328 170.689 600.686C170.689 599.043 169.351 597.712 167.699 597.712C166.047 597.712 164.708 599.043 164.708 600.686Z" fill="#CDAEF4"/>
<path d="M143.822 600.685C143.822 602.328 145.16 603.659 146.812 603.659C148.464 603.659 149.802 602.328 149.802 600.685C149.802 599.043 148.464 597.712 146.812 597.712C145.16 597.712 143.822 599.043 143.822 600.685Z" fill="#CDAEF4"/>
<path d="M122.948 600.685C122.948 602.328 124.287 603.659 125.939 603.659C127.59 603.659 128.929 602.328 128.929 600.685C128.929 599.043 127.59 597.712 125.939 597.712C124.287 597.712 122.948 599.043 122.948 600.685Z" fill="#CDAEF4"/>
<path d="M102.059 600.685C102.059 602.328 103.398 603.659 105.05 603.659C106.701 603.659 108.04 602.328 108.04 600.685C108.04 599.043 106.701 597.712 105.05 597.712C103.398 597.712 102.059 599.043 102.059 600.685Z" fill="#CDAEF4"/>
<path d="M81.1862 600.685C81.1862 602.328 82.525 603.659 84.1766 603.659C85.8282 603.659 87.1671 602.328 87.1671 600.685C87.1671 599.043 85.8282 597.712 84.1766 597.712C82.525 597.712 81.1862 599.043 81.1862 600.685Z" fill="#CDAEF4"/>
<path d="M60.2971 600.685C60.2971 602.328 61.636 603.659 63.2876 603.659C64.9391 603.659 66.278 602.328 66.278 600.685C66.278 599.043 64.9391 597.712 63.2876 597.712C61.636 597.712 60.2971 599.043 60.2971 600.685Z" fill="#CDAEF4"/>
<path d="M39.4238 600.685C39.4238 602.328 40.7627 603.659 42.4143 603.659C44.0658 603.659 45.4047 602.328 45.4047 600.685C45.4047 599.043 44.0658 597.712 42.4143 597.712C40.7627 597.712 39.4238 599.043 39.4238 600.685Z" fill="#CDAEF4"/>
<path d="M169.477 269V264.386L173.563 263.595V236.041L169.477 235.25V230.609H185.903V235.25L181.263 236.041V263.094H192.1L192.469 257.478H198.349V269H169.477ZM214.96 269.554C212.218 269.554 209.827 268.956 207.788 267.761C205.767 266.548 204.193 264.887 203.068 262.777C201.961 260.668 201.407 258.26 201.407 255.553V254.498C201.407 251.668 201.935 249.163 202.989 246.983C204.044 244.786 205.529 243.063 207.445 241.815C209.379 240.55 211.655 239.926 214.274 239.943C218.124 239.943 221.068 241.077 223.107 243.345C225.146 245.595 226.166 248.759 226.166 252.837V257.029H209.396L209.344 257.188C209.484 259.068 210.108 260.615 211.216 261.828C212.323 263.041 213.896 263.647 215.936 263.647C217.342 263.647 218.651 263.472 219.864 263.12C221.095 262.751 222.29 262.215 223.45 261.512L225.533 266.258C224.355 267.207 222.87 267.998 221.077 268.631C219.302 269.246 217.263 269.554 214.96 269.554ZM209.449 251.94H218.968V251.255C218.968 249.532 218.607 248.17 217.887 247.168C217.184 246.148 216.023 245.639 214.406 245.639C212.859 245.639 211.682 246.228 210.873 247.405C210.064 248.565 209.563 250.033 209.37 251.809L209.449 251.94ZM239.271 269.554C236.44 269.554 234.19 268.798 232.521 267.286C230.851 265.757 230.016 263.683 230.016 261.063C230.016 258.392 231.097 256.212 233.259 254.524C235.438 252.837 238.638 251.993 242.856 251.993H246.627V249.884C246.627 248.513 246.223 247.405 245.414 246.562C244.623 245.7 243.428 245.27 241.828 245.27C241.002 245.27 240.255 245.375 239.587 245.586C238.937 245.779 238.348 246.061 237.82 246.43L237.214 250.2H231.677L231.571 242.791C233.065 241.947 234.683 241.262 236.423 240.734C238.163 240.207 240.105 239.943 242.25 239.943C245.977 239.943 248.921 240.813 251.083 242.554C253.245 244.294 254.326 246.764 254.326 249.963V261.723C254.326 262.109 254.326 262.487 254.326 262.856C254.344 263.226 254.379 263.595 254.432 263.964L257.411 264.386V269H247.866C247.673 268.508 247.479 267.98 247.286 267.418C247.093 266.855 246.952 266.293 246.864 265.73C245.95 266.891 244.869 267.822 243.621 268.525C242.391 269.211 240.94 269.554 239.271 269.554ZM241.327 263.858C242.399 263.858 243.41 263.621 244.359 263.146C245.326 262.654 246.082 262.013 246.627 261.222V256.713H242.83C241.143 256.713 239.859 257.1 238.98 257.873C238.119 258.646 237.688 259.578 237.688 260.668C237.688 261.688 238.005 262.479 238.638 263.041C239.288 263.586 240.185 263.858 241.327 263.858ZM260.733 269V264.386L264.425 263.595V245.902L260.338 245.111V240.471H271.597L271.887 244.004L271.939 244.637C273.346 241.508 275.455 239.943 278.268 239.943C278.725 239.943 279.217 239.979 279.744 240.049C280.289 240.119 280.781 240.225 281.221 240.365L280.403 247.458L276.58 247.247C275.49 247.194 274.603 247.379 273.917 247.801C273.249 248.223 272.651 248.829 272.124 249.62V263.595L275.815 264.386V269H260.733ZM283.436 269V264.386L287.127 263.595V245.902L283.04 245.111V240.471H294.299L294.642 244.558C295.591 243.099 296.76 241.965 298.148 241.156C299.555 240.348 301.154 239.943 302.947 239.943C305.76 239.943 307.966 240.849 309.565 242.659C311.183 244.47 311.991 247.309 311.991 251.176V263.595L315.683 264.386V269H300.97V264.386L304.266 263.595V251.202C304.266 249.286 303.879 247.933 303.105 247.142C302.35 246.333 301.233 245.929 299.757 245.929C297.612 245.929 295.969 246.825 294.826 248.618V263.595L297.938 264.386V269H283.436ZM342.656 269.554C340.002 269.554 337.954 268.824 336.513 267.365C335.089 265.906 334.377 263.595 334.377 260.431V245.876H330.448V240.471H334.377V233.483H342.05V240.471H347.297V245.876H342.05V260.404C342.05 261.512 342.278 262.303 342.735 262.777C343.21 263.252 343.852 263.489 344.66 263.489C345.082 263.489 345.539 263.463 346.031 263.41C346.523 263.34 346.945 263.27 347.297 263.199L347.956 268.763C347.183 268.991 346.33 269.176 345.398 269.316C344.467 269.475 343.553 269.554 342.656 269.554ZM363.776 269.554C360.946 269.554 358.521 268.938 356.499 267.708C354.495 266.478 352.957 264.772 351.885 262.593C350.812 260.396 350.276 257.873 350.276 255.025V254.472C350.276 251.642 350.812 249.137 351.885 246.957C352.957 244.76 354.495 243.046 356.499 241.815C358.521 240.567 360.929 239.943 363.724 239.943C366.536 239.943 368.944 240.559 370.948 241.789C372.97 243.02 374.517 244.733 375.589 246.931C376.661 249.11 377.197 251.624 377.197 254.472V255.025C377.197 257.873 376.661 260.396 375.589 262.593C374.517 264.772 372.979 266.478 370.975 267.708C368.971 268.938 366.571 269.554 363.776 269.554ZM363.776 263.647C365.763 263.647 367.213 262.856 368.127 261.274C369.059 259.692 369.524 257.609 369.524 255.025V254.472C369.524 251.94 369.059 249.875 368.127 248.275C367.195 246.676 365.728 245.876 363.724 245.876C361.72 245.876 360.261 246.676 359.347 248.275C358.433 249.875 357.976 251.94 357.976 254.472V255.025C357.976 257.627 358.433 259.719 359.347 261.301C360.261 262.865 361.737 263.647 363.776 263.647ZM407.309 269.554C404.566 269.554 402.193 268.938 400.189 267.708C398.203 266.478 396.674 264.781 395.602 262.619C394.529 260.457 393.993 257.97 393.993 255.157V254.366C393.993 251.571 394.538 249.093 395.628 246.931C396.718 244.751 398.256 243.046 400.242 241.815C402.229 240.567 404.566 239.943 407.256 239.943C409.805 239.943 412.011 240.348 413.874 241.156C415.737 241.947 417.249 242.87 418.409 243.925L418.356 252.099H412.556L411.527 247.01C411.105 246.588 410.569 246.245 409.919 245.981C409.269 245.718 408.609 245.586 407.941 245.586C405.832 245.586 404.259 246.368 403.222 247.933C402.202 249.479 401.692 251.624 401.692 254.366V255.157C401.692 258.093 402.246 260.246 403.354 261.617C404.461 262.971 405.797 263.647 407.361 263.647C408.715 263.647 409.796 263.296 410.604 262.593C411.431 261.872 412.002 260.861 412.318 259.561H418.884L418.963 259.719C418.506 262.76 417.381 265.159 415.588 266.917C413.795 268.675 411.035 269.554 407.309 269.554ZM436.022 269.554C433.192 269.554 430.767 268.938 428.745 267.708C426.741 266.478 425.203 264.772 424.131 262.593C423.059 260.396 422.522 257.873 422.522 255.025V254.472C422.522 251.642 423.059 249.137 424.131 246.957C425.203 244.76 426.741 243.046 428.745 241.815C430.767 240.567 433.175 239.943 435.97 239.943C438.782 239.943 441.19 240.559 443.194 241.789C445.216 243.02 446.763 244.733 447.835 246.931C448.907 249.11 449.443 251.624 449.443 254.472V255.025C449.443 257.873 448.907 260.396 447.835 262.593C446.763 264.772 445.225 266.478 443.221 267.708C441.217 268.938 438.817 269.554 436.022 269.554ZM436.022 263.647C438.009 263.647 439.459 262.856 440.373 261.274C441.305 259.692 441.771 257.609 441.771 255.025V254.472C441.771 251.94 441.305 249.875 440.373 248.275C439.441 246.676 437.974 245.876 435.97 245.876C433.966 245.876 432.507 246.676 431.593 248.275C430.679 249.875 430.222 251.94 430.222 254.472V255.025C430.222 257.627 430.679 259.719 431.593 261.301C432.507 262.865 433.983 263.647 436.022 263.647ZM464.13 269.554C461.862 269.554 459.911 268.974 458.276 267.813C456.659 266.636 455.42 265.001 454.559 262.909C453.697 260.8 453.267 258.339 453.267 255.526V254.973C453.267 251.967 453.697 249.339 454.559 247.089C455.438 244.839 456.686 243.09 458.303 241.842C459.92 240.576 461.854 239.943 464.104 239.943C465.686 239.943 467.057 240.26 468.217 240.893C469.395 241.508 470.414 242.387 471.275 243.529V233.299L467.162 232.508V227.867H478.975V263.595L482.666 264.386V269H472.304L471.724 265.52C470.827 266.838 469.755 267.84 468.507 268.525C467.259 269.211 465.8 269.554 464.13 269.554ZM466.424 263.568C468.551 263.568 470.168 262.681 471.275 260.905V248.803C470.168 246.887 468.568 245.929 466.477 245.929C464.543 245.929 463.137 246.764 462.258 248.434C461.396 250.104 460.966 252.283 460.966 254.973V255.526C460.966 258.022 461.388 259.991 462.231 261.433C463.075 262.856 464.473 263.568 466.424 263.568ZM498.776 269.554C496.034 269.554 493.644 268.956 491.604 267.761C489.583 266.548 488.01 264.887 486.885 262.777C485.777 260.668 485.224 258.26 485.224 255.553V254.498C485.224 251.668 485.751 249.163 486.806 246.983C487.86 244.786 489.346 243.063 491.262 241.815C493.195 240.55 495.472 239.926 498.091 239.943C501.94 239.943 504.885 241.077 506.924 243.345C508.963 245.595 509.982 248.759 509.982 252.837V257.029H493.213L493.16 257.188C493.301 259.068 493.925 260.615 495.032 261.828C496.14 263.041 497.713 263.647 499.752 263.647C501.158 263.647 502.468 263.472 503.681 263.12C504.911 262.751 506.106 262.215 507.267 261.512L509.35 266.258C508.172 267.207 506.687 267.998 504.894 268.631C503.118 269.246 501.079 269.554 498.776 269.554ZM493.266 251.94H502.784V251.255C502.784 249.532 502.424 248.17 501.703 247.168C501 246.148 499.84 245.639 498.223 245.639C496.676 245.639 495.498 246.228 494.689 247.405C493.881 248.565 493.38 250.033 493.187 251.809L493.266 251.94ZM515.282 269V262.25H522.955V269H515.282ZM169.477 340V335.386L173.563 334.595V307.041L169.477 306.25V301.609H185.35V306.25L181.263 307.041V334.595L185.35 335.386V340H169.477ZM188.197 340V335.386L191.889 334.595V316.902L187.802 316.111V311.471H199.061L199.403 315.558C200.353 314.099 201.521 312.965 202.91 312.156C204.316 311.348 205.916 310.943 207.709 310.943C210.521 310.943 212.728 311.849 214.327 313.659C215.944 315.47 216.753 318.309 216.753 322.176V334.595L220.444 335.386V340H205.731V335.386L209.027 334.595V322.202C209.027 320.286 208.641 318.933 207.867 318.142C207.111 317.333 205.995 316.929 204.519 316.929C202.374 316.929 200.73 317.825 199.588 319.618V334.595L202.699 335.386V340H188.197ZM233.232 340.554C230.578 340.554 228.53 339.824 227.089 338.365C225.665 336.906 224.953 334.595 224.953 331.431V316.876H221.024V311.471H224.953V304.483H232.626V311.471H237.873V316.876H232.626V331.404C232.626 332.512 232.854 333.303 233.312 333.777C233.786 334.252 234.428 334.489 235.236 334.489C235.658 334.489 236.115 334.463 236.607 334.41C237.1 334.34 237.521 334.27 237.873 334.199L238.532 339.763C237.759 339.991 236.906 340.176 235.975 340.316C235.043 340.475 234.129 340.554 233.232 340.554ZM254.405 340.554C251.663 340.554 249.272 339.956 247.233 338.761C245.212 337.548 243.639 335.887 242.514 333.777C241.406 331.668 240.853 329.26 240.853 326.553V325.498C240.853 322.668 241.38 320.163 242.435 317.983C243.489 315.786 244.975 314.063 246.891 312.815C248.824 311.55 251.101 310.926 253.72 310.943C257.569 310.943 260.514 312.077 262.553 314.345C264.592 316.595 265.611 319.759 265.611 323.837V328.029H248.842L248.789 328.188C248.93 330.068 249.554 331.615 250.661 332.828C251.769 334.041 253.342 334.647 255.381 334.647C256.787 334.647 258.097 334.472 259.31 334.12C260.54 333.751 261.735 333.215 262.896 332.512L264.979 337.258C263.801 338.207 262.315 338.998 260.522 339.631C258.747 340.246 256.708 340.554 254.405 340.554ZM248.895 322.94H258.413V322.255C258.413 320.532 258.053 319.17 257.332 318.168C256.629 317.148 255.469 316.639 253.852 316.639C252.305 316.639 251.127 317.228 250.318 318.405C249.51 319.565 249.009 321.033 248.815 322.809L248.895 322.94ZM269.751 340V335.386L273.442 334.595V316.902L269.355 316.111V311.471H280.614L280.904 315.004L280.957 315.637C282.363 312.508 284.473 310.943 287.285 310.943C287.742 310.943 288.234 310.979 288.762 311.049C289.307 311.119 289.799 311.225 290.238 311.365L289.421 318.458L285.598 318.247C284.508 318.194 283.62 318.379 282.935 318.801C282.267 319.223 281.669 319.829 281.142 320.62V334.595L284.833 335.386V340H269.751ZM301.55 340.554C298.72 340.554 296.47 339.798 294.8 338.286C293.13 336.757 292.295 334.683 292.295 332.063C292.295 329.392 293.376 327.212 295.538 325.524C297.718 323.837 300.917 322.993 305.136 322.993H308.906V320.884C308.906 319.513 308.502 318.405 307.693 317.562C306.902 316.7 305.707 316.27 304.107 316.27C303.281 316.27 302.534 316.375 301.866 316.586C301.216 316.779 300.627 317.061 300.1 317.43L299.493 321.2H293.956L293.851 313.791C295.345 312.947 296.962 312.262 298.702 311.734C300.442 311.207 302.385 310.943 304.529 310.943C308.256 310.943 311.2 311.813 313.362 313.554C315.524 315.294 316.605 317.764 316.605 320.963V332.723C316.605 333.109 316.605 333.487 316.605 333.856C316.623 334.226 316.658 334.595 316.711 334.964L319.69 335.386V340H310.146C309.952 339.508 309.759 338.98 309.565 338.418C309.372 337.855 309.231 337.293 309.144 336.73C308.229 337.891 307.148 338.822 305.9 339.525C304.67 340.211 303.22 340.554 301.55 340.554ZM303.606 334.858C304.679 334.858 305.689 334.621 306.639 334.146C307.605 333.654 308.361 333.013 308.906 332.222V327.713H305.109C303.422 327.713 302.139 328.1 301.26 328.873C300.398 329.646 299.968 330.578 299.968 331.668C299.968 332.688 300.284 333.479 300.917 334.041C301.567 334.586 302.464 334.858 303.606 334.858ZM335.854 340.554C333.111 340.554 330.738 339.938 328.734 338.708C326.748 337.478 325.219 335.781 324.146 333.619C323.074 331.457 322.538 328.97 322.538 326.157V325.366C322.538 322.571 323.083 320.093 324.173 317.931C325.263 315.751 326.801 314.046 328.787 312.815C330.773 311.567 333.111 310.943 335.801 310.943C338.35 310.943 340.556 311.348 342.419 312.156C344.282 312.947 345.794 313.87 346.954 314.925L346.901 323.099H341.101L340.072 318.01C339.65 317.588 339.114 317.245 338.464 316.981C337.813 316.718 337.154 316.586 336.486 316.586C334.377 316.586 332.804 317.368 331.767 318.933C330.747 320.479 330.237 322.624 330.237 325.366V326.157C330.237 329.093 330.791 331.246 331.898 332.617C333.006 333.971 334.342 334.647 335.906 334.647C337.26 334.647 338.341 334.296 339.149 333.593C339.976 332.872 340.547 331.861 340.863 330.561H347.429L347.508 330.719C347.051 333.76 345.926 336.159 344.133 337.917C342.34 339.675 339.58 340.554 335.854 340.554ZM362.168 340.554C359.514 340.554 357.466 339.824 356.024 338.365C354.601 336.906 353.889 334.595 353.889 331.431V316.876H349.96V311.471H353.889V304.483H361.562V311.471H366.809V316.876H361.562V331.404C361.562 332.512 361.79 333.303 362.247 333.777C362.722 334.252 363.363 334.489 364.172 334.489C364.594 334.489 365.051 334.463 365.543 334.41C366.035 334.34 366.457 334.27 366.809 334.199L367.468 339.763C366.694 339.991 365.842 340.176 364.91 340.316C363.979 340.475 363.064 340.554 362.168 340.554ZM370.816 340V335.386L374.534 334.595V316.902L370.421 316.111V311.471H382.233V334.595L385.925 335.386V340H370.816ZM374.271 305.433V298.867H382.233V305.433H374.271ZM399.135 340L390.513 316.586L387.428 316.111V311.471H401.271V316.085L398.265 316.612L402.562 329.559L403.222 331.773H403.38L404.118 329.559L408.838 316.639L405.331 316.085V311.471H419.147V316.111L415.983 316.639L406.966 340H399.135ZM434.546 340.554C431.804 340.554 429.413 339.956 427.374 338.761C425.353 337.548 423.779 335.887 422.654 333.777C421.547 331.668 420.993 329.26 420.993 326.553V325.498C420.993 322.668 421.521 320.163 422.575 317.983C423.63 315.786 425.115 314.063 427.031 312.815C428.965 311.55 431.241 310.926 433.86 310.943C437.71 310.943 440.654 312.077 442.693 314.345C444.732 316.595 445.752 319.759 445.752 323.837V328.029H428.982L428.93 328.188C429.07 330.068 429.694 331.615 430.802 332.828C431.909 334.041 433.482 334.647 435.521 334.647C436.928 334.647 438.237 334.472 439.45 334.12C440.681 333.751 441.876 333.215 443.036 332.512L445.119 337.258C443.941 338.207 442.456 338.998 440.663 339.631C438.888 340.246 436.849 340.554 434.546 340.554ZM429.035 322.94H438.554V322.255C438.554 320.532 438.193 319.17 437.473 318.168C436.77 317.148 435.609 316.639 433.992 316.639C432.445 316.639 431.268 317.228 430.459 318.405C429.65 319.565 429.149 321.033 428.956 322.809L429.035 322.94ZM448.89 340V335.386L452.607 334.595V304.299L448.494 303.508V298.867H460.307V334.595L464.024 335.386V340H448.89ZM474.466 351.522C473.815 351.522 473.112 351.461 472.356 351.338C471.601 351.232 470.889 351.083 470.221 350.89L471.091 345.247C471.425 345.317 471.794 345.37 472.198 345.405C472.603 345.44 472.954 345.458 473.253 345.458C475.573 345.458 477.12 344.333 477.894 342.083L478.526 340.316L468.981 316.612L465.475 316.111V311.471H480.609V316.111L477.129 316.639L481.611 329.216L482.165 330.771H482.323L487.623 316.586L484.222 316.111V311.471H498.328V316.111L495.111 316.56L484.222 344.245C483.694 345.563 483.018 346.776 482.191 347.884C481.383 348.991 480.346 349.87 479.08 350.521C477.832 351.188 476.294 351.522 474.466 351.522ZM497.774 340V333.25H505.447V340H497.774ZM169.477 411V406.386L173.563 405.595V378.041L169.477 377.25V372.609H200.036V383.13H194.13L193.787 378.542H181.263V389.115H194.71V395.048H181.263V405.595L185.376 406.386V411H169.477ZM215.382 411.554C212.552 411.554 210.126 410.938 208.104 409.708C206.101 408.478 204.562 406.772 203.49 404.593C202.418 402.396 201.882 399.873 201.882 397.025V396.472C201.882 393.642 202.418 391.137 203.49 388.957C204.562 386.76 206.101 385.046 208.104 383.815C210.126 382.567 212.534 381.943 215.329 381.943C218.142 381.943 220.55 382.559 222.554 383.789C224.575 385.02 226.122 386.733 227.194 388.931C228.267 391.11 228.803 393.624 228.803 396.472V397.025C228.803 399.873 228.267 402.396 227.194 404.593C226.122 406.772 224.584 408.478 222.58 409.708C220.576 410.938 218.177 411.554 215.382 411.554ZM215.382 405.647C217.368 405.647 218.818 404.856 219.732 403.274C220.664 401.692 221.13 399.609 221.13 397.025V396.472C221.13 393.94 220.664 391.875 219.732 390.275C218.801 388.676 217.333 387.876 215.329 387.876C213.325 387.876 211.866 388.676 210.952 390.275C210.038 391.875 209.581 393.94 209.581 396.472V397.025C209.581 399.627 210.038 401.719 210.952 403.301C211.866 404.865 213.343 405.647 215.382 405.647ZM232.837 411V406.386L236.528 405.595V387.902L232.441 387.111V382.471H243.7L243.99 386.004L244.043 386.637C245.449 383.508 247.559 381.943 250.371 381.943C250.828 381.943 251.32 381.979 251.848 382.049C252.393 382.119 252.885 382.225 253.324 382.365L252.507 389.458L248.684 389.247C247.594 389.194 246.706 389.379 246.021 389.801C245.353 390.223 244.755 390.829 244.228 391.62V405.595L247.919 406.386V411H232.837ZM269.276 411V406.386L272.994 405.595V387.876H268.749V382.471H272.994V379.307C272.994 376.107 273.908 373.646 275.736 371.924C277.582 370.184 280.157 369.313 283.462 369.313C284.288 369.313 285.158 369.384 286.072 369.524C286.986 369.647 287.769 369.797 288.419 369.973L287.76 375.694C286.811 375.448 285.773 375.325 284.648 375.325C282.012 375.325 280.693 376.652 280.693 379.307V382.471H287.153V387.876H280.693V405.595L285.729 406.386V411H269.276ZM290.528 411V406.386L294.22 405.595V387.902L290.133 387.111V382.471H301.392L301.682 386.004L301.734 386.637C303.141 383.508 305.25 381.943 308.062 381.943C308.52 381.943 309.012 381.979 309.539 382.049C310.084 382.119 310.576 382.225 311.016 382.365L310.198 389.458L306.375 389.247C305.285 389.194 304.397 389.379 303.712 389.801C303.044 390.223 302.446 390.829 301.919 391.62V405.595L305.61 406.386V411H290.528ZM326.44 411.554C323.698 411.554 321.308 410.956 319.269 409.761C317.247 408.548 315.674 406.887 314.549 404.777C313.441 402.668 312.888 400.26 312.888 397.553V396.498C312.888 393.668 313.415 391.163 314.47 388.983C315.524 386.786 317.01 385.063 318.926 383.815C320.859 382.55 323.136 381.926 325.755 381.943C329.604 381.943 332.549 383.077 334.588 385.345C336.627 387.595 337.646 390.759 337.646 394.837V399.029H320.877L320.824 399.188C320.965 401.068 321.589 402.615 322.696 403.828C323.804 405.041 325.377 405.647 327.416 405.647C328.822 405.647 330.132 405.472 331.345 405.12C332.575 404.751 333.771 404.215 334.931 403.512L337.014 408.258C335.836 409.207 334.351 409.998 332.558 410.631C330.782 411.246 328.743 411.554 326.44 411.554ZM320.93 393.94H330.448V393.255C330.448 391.532 330.088 390.17 329.367 389.168C328.664 388.148 327.504 387.639 325.887 387.639C324.34 387.639 323.162 388.228 322.354 389.405C321.545 390.565 321.044 392.033 320.851 393.809L320.93 393.94ZM354.97 411.554C352.228 411.554 349.837 410.956 347.798 409.761C345.776 408.548 344.203 406.887 343.078 404.777C341.971 402.668 341.417 400.26 341.417 397.553V396.498C341.417 393.668 341.944 391.163 342.999 388.983C344.054 386.786 345.539 385.063 347.455 383.815C349.389 382.55 351.665 381.926 354.284 381.943C358.134 381.943 361.078 383.077 363.117 385.345C365.156 387.595 366.176 390.759 366.176 394.837V399.029H349.406L349.354 399.188C349.494 401.068 350.118 402.615 351.226 403.828C352.333 405.041 353.906 405.647 355.945 405.647C357.352 405.647 358.661 405.472 359.874 405.12C361.104 404.751 362.3 404.215 363.46 403.512L365.543 408.258C364.365 409.207 362.88 409.998 361.087 410.631C359.312 411.246 357.272 411.554 354.97 411.554ZM349.459 393.94H358.978V393.255C358.978 391.532 358.617 390.17 357.896 389.168C357.193 388.148 356.033 387.639 354.416 387.639C352.869 387.639 351.691 388.228 350.883 389.405C350.074 390.565 349.573 392.033 349.38 393.809L349.459 393.94ZM371.476 411V404.25H379.148V411H371.476Z" fill="white"/>
</svg>
