<svg width="580" height="667" viewBox="0 0 580 667" fill="none" xmlns="http://www.w3.org/2000/svg">
<path d="M493.762 661.405C488.789 661.405 484.757 657.339 484.757 652.324C484.757 647.309 488.789 643.243 493.762 643.243C498.735 643.243 502.766 647.309 502.766 652.324C502.766 657.323 498.735 661.405 493.762 661.405Z" stroke="#7005F7" stroke-width="3" stroke-miterlimit="10" stroke-linecap="round" stroke-linejoin="round"/>
<path d="M487.55 658.888L481.182 665.294" stroke="#7005F7" stroke-width="3" stroke-miterlimit="10" stroke-linecap="round" stroke-linejoin="round"/>
<path d="M324.802 2.00003L315.328 11.5541" stroke="#7005F7" stroke-width="3" stroke-miterlimit="10" stroke-linecap="round" stroke-linejoin="round"/>
<path d="M324.802 11.5541L315.328 2.00003" stroke="#7005F7" stroke-width="3" stroke-miterlimit="10" stroke-linecap="round" stroke-linejoin="round"/>
<path d="M311.239 576.763L301.765 586.317" stroke="#7005F7" stroke-width="3" stroke-miterlimit="10" stroke-linecap="round" stroke-linejoin="round"/>
<path d="M311.239 586.317L301.765 576.763" stroke="#7005F7" stroke-width="3" stroke-miterlimit="10" stroke-linecap="round" stroke-linejoin="round"/>
<path d="M15.3969 187.274L1.99993 187.274" stroke="#7005F7" stroke-width="3" stroke-miterlimit="10" stroke-linecap="round" stroke-linejoin="round"/>
<path d="M8.69995 194.046L8.69995 180.52" stroke="#7005F7" stroke-width="3" stroke-miterlimit="10" stroke-linecap="round" stroke-linejoin="round"/>
<path d="M407.283 138.422C402.797 138.422 399.141 134.752 399.141 130.211C399.141 125.686 402.781 122 407.283 122C411.77 122 415.425 125.67 415.425 130.211C415.409 134.752 411.77 138.422 407.283 138.422Z" stroke="#7005F7" stroke-width="3" stroke-miterlimit="10" stroke-linecap="round" stroke-linejoin="round"/>
<path d="M569.858 345.169C565.372 345.169 561.717 341.499 561.717 336.958C561.717 332.434 565.356 328.747 569.858 328.747C574.345 328.747 578 332.418 578 336.958C577.984 341.499 574.345 345.169 569.858 345.169Z" stroke="#7005F7" stroke-width="3" stroke-miterlimit="10" stroke-linecap="round" stroke-linejoin="round"/>
<path d="M57.9551 471.906C53.4685 471.906 49.8134 468.236 49.8134 463.695C49.8134 459.171 53.4528 455.484 57.9551 455.484C62.4417 455.484 66.0968 459.155 66.0968 463.695C66.0811 468.236 62.4417 471.906 57.9551 471.906Z" stroke="#7005F7" stroke-width="3" stroke-miterlimit="10" stroke-linecap="round" stroke-linejoin="round"/>
<path d="M155.21 23.2467C155.21 24.8891 156.53 26.2205 158.159 26.2205C159.787 26.2205 161.108 24.8891 161.108 23.2467C161.108 21.6044 159.787 20.2729 158.159 20.2729C156.53 20.2729 155.21 21.6044 155.21 23.2467Z" fill="#CDAEF4"/>
<path d="M155.21 44.02C155.21 45.6623 156.53 46.9937 158.159 46.9937C159.787 46.9938 161.108 45.6623 161.108 44.02C161.108 42.3776 159.787 41.0462 158.159 41.0462C156.53 41.0462 155.21 42.3776 155.21 44.02Z" fill="#CDAEF4"/>
<path d="M155.21 64.7744C155.21 66.4168 156.53 67.7482 158.159 67.7482C159.787 67.7482 161.108 66.4168 161.108 64.7744C161.108 63.132 159.787 61.8006 158.159 61.8006C156.53 61.8006 155.21 63.132 155.21 64.7744Z" fill="#CDAEF4"/>
<path d="M155.21 85.5447C155.21 87.1871 156.53 88.5185 158.159 88.5185C159.787 88.5185 161.108 87.1871 161.108 85.5447C161.108 83.9023 159.787 82.5709 158.159 82.5709C156.53 82.5709 155.21 83.9023 155.21 85.5447Z" fill="#CDAEF4"/>
<path d="M155.21 106.301C155.21 107.943 156.53 109.275 158.159 109.275C159.787 109.275 161.108 107.943 161.108 106.301C161.108 104.659 159.787 103.327 158.159 103.327C156.53 103.327 155.21 104.659 155.21 106.301Z" fill="#CDAEF4"/>
<path d="M155.21 127.071C155.21 128.714 156.53 130.045 158.159 130.045C159.787 130.045 161.108 128.714 161.108 127.071C161.108 125.429 159.787 124.098 158.159 124.098C156.53 124.098 155.21 125.429 155.21 127.071Z" fill="#CDAEF4"/>
<path d="M134.628 23.247C134.628 24.8893 135.948 26.2207 137.577 26.2207C139.205 26.2207 140.526 24.8893 140.526 23.247C140.526 21.6046 139.205 20.2732 137.577 20.2732C135.948 20.2732 134.628 21.6046 134.628 23.247Z" fill="#CDAEF4"/>
<path d="M134.628 44.02C134.628 45.6623 135.948 46.9937 137.577 46.9937C139.205 46.9938 140.526 45.6623 140.526 44.02C140.526 42.3776 139.205 41.0462 137.577 41.0462C135.948 41.0462 134.628 42.3776 134.628 44.02Z" fill="#CDAEF4"/>
<path d="M134.628 64.7744C134.628 66.4168 135.948 67.7482 137.577 67.7482C139.205 67.7482 140.526 66.4168 140.526 64.7744C140.526 63.132 139.205 61.8006 137.577 61.8006C135.948 61.8006 134.628 63.132 134.628 64.7744Z" fill="#CDAEF4"/>
<path d="M134.628 85.5447C134.628 87.1871 135.948 88.5185 137.577 88.5185C139.205 88.5185 140.526 87.1871 140.526 85.5447C140.526 83.9023 139.205 82.5709 137.577 82.5709C135.948 82.5709 134.628 83.9023 134.628 85.5447Z" fill="#CDAEF4"/>
<path d="M134.628 106.301C134.628 107.943 135.948 109.275 137.577 109.275C139.205 109.275 140.526 107.943 140.526 106.301C140.526 104.659 139.205 103.327 137.577 103.327C135.948 103.327 134.628 104.659 134.628 106.301Z" fill="#CDAEF4"/>
<path d="M134.628 127.071C134.628 128.714 135.948 130.045 137.577 130.045C139.205 130.045 140.526 128.714 140.526 127.071C140.526 125.429 139.205 124.098 137.577 124.098C135.948 124.098 134.628 125.429 134.628 127.071Z" fill="#CDAEF4"/>
<path d="M114.031 23.247C114.031 24.8893 115.351 26.2207 116.979 26.2207C118.608 26.2207 119.928 24.8893 119.928 23.247C119.928 21.6046 118.608 20.2732 116.979 20.2732C115.351 20.2732 114.031 21.6046 114.031 23.247Z" fill="#CDAEF4"/>
<path d="M114.031 44.02C114.031 45.6623 115.351 46.9937 116.979 46.9937C118.608 46.9938 119.928 45.6623 119.928 44.02C119.928 42.3776 118.608 41.0462 116.979 41.0462C115.351 41.0462 114.031 42.3776 114.031 44.02Z" fill="#CDAEF4"/>
<path d="M114.031 64.7744C114.031 66.4168 115.351 67.7482 116.979 67.7482C118.608 67.7482 119.928 66.4168 119.928 64.7744C119.928 63.132 118.608 61.8006 116.979 61.8006C115.351 61.8006 114.031 63.132 114.031 64.7744Z" fill="#CDAEF4"/>
<path d="M114.031 85.5447C114.031 87.1871 115.351 88.5185 116.98 88.5185C118.608 88.5185 119.928 87.1871 119.928 85.5447C119.928 83.9023 118.608 82.5709 116.98 82.5709C115.351 82.5709 114.031 83.9023 114.031 85.5447Z" fill="#CDAEF4"/>
<path d="M114.031 106.301C114.031 107.943 115.351 109.275 116.979 109.275C118.608 109.275 119.928 107.943 119.928 106.301C119.928 104.659 118.608 103.327 116.979 103.327C115.351 103.327 114.031 104.659 114.031 106.301Z" fill="#CDAEF4"/>
<path d="M114.031 127.071C114.031 128.714 115.351 130.045 116.979 130.045C118.608 130.045 119.928 128.714 119.928 127.071C119.928 125.429 118.608 124.098 116.979 124.098C115.351 124.098 114.031 125.429 114.031 127.071Z" fill="#CDAEF4"/>
<path d="M93.4493 23.247C93.4493 24.8893 94.7694 26.2207 96.398 26.2207C98.0265 26.2207 99.3467 24.8893 99.3467 23.247C99.3467 21.6046 98.0265 20.2732 96.398 20.2732C94.7694 20.2732 93.4493 21.6046 93.4493 23.247Z" fill="#CDAEF4"/>
<path d="M93.4493 44.02C93.4493 45.6623 94.7694 46.9937 96.398 46.9937C98.0265 46.9938 99.3467 45.6623 99.3467 44.02C99.3467 42.3776 98.0265 41.0462 96.398 41.0462C94.7694 41.0462 93.4493 42.3776 93.4493 44.02Z" fill="#CDAEF4"/>
<path d="M93.4493 64.7744C93.4493 66.4168 94.7694 67.7482 96.398 67.7482C98.0265 67.7482 99.3467 66.4168 99.3467 64.7744C99.3467 63.132 98.0265 61.8006 96.398 61.8006C94.7694 61.8006 93.4493 63.132 93.4493 64.7744Z" fill="#CDAEF4"/>
<path d="M93.4493 85.5447C93.4493 87.1871 94.7694 88.5185 96.398 88.5185C98.0265 88.5185 99.3467 87.1871 99.3467 85.5447C99.3467 83.9023 98.0265 82.5709 96.398 82.5709C94.7694 82.5709 93.4493 83.9023 93.4493 85.5447Z" fill="#CDAEF4"/>
<path d="M93.4493 106.301C93.4493 107.943 94.7694 109.275 96.398 109.275C98.0265 109.275 99.3467 107.943 99.3467 106.301C99.3467 104.659 98.0265 103.327 96.398 103.327C94.7694 103.327 93.4493 104.659 93.4493 106.301Z" fill="#CDAEF4"/>
<path d="M93.4493 127.071C93.4493 128.714 94.7694 130.045 96.398 130.045C98.0265 130.045 99.3467 128.714 99.3467 127.071C99.3467 125.429 98.0265 124.098 96.398 124.098C94.7694 124.098 93.4493 125.429 93.4493 127.071Z" fill="#CDAEF4"/>
<path d="M491.02 477.706C491.02 479.348 492.34 480.679 493.969 480.679C495.597 480.679 496.917 479.348 496.917 477.706C496.917 476.063 495.597 474.732 493.969 474.732C492.34 474.732 491.02 476.063 491.02 477.706Z" fill="#CDAEF4"/>
<path d="M491.021 498.461C491.021 500.103 492.341 501.434 493.97 501.434C495.598 501.434 496.918 500.103 496.918 498.461C496.918 496.818 495.598 495.487 493.97 495.487C492.341 495.487 491.021 496.818 491.021 498.461Z" fill="#CDAEF4"/>
<path d="M491.021 519.23C491.021 520.873 492.341 522.204 493.97 522.204C495.598 522.204 496.918 520.873 496.918 519.23C496.918 517.588 495.598 516.256 493.97 516.256C492.341 516.256 491.021 517.588 491.021 519.23Z" fill="#CDAEF4"/>
<path d="M470.424 477.704C470.424 479.346 471.744 480.677 473.372 480.677C475.001 480.677 476.321 479.346 476.321 477.704C476.321 476.061 475.001 474.73 473.372 474.73C471.744 474.73 470.424 476.061 470.424 477.704Z" fill="#CDAEF4"/>
<path d="M470.424 498.461C470.424 500.103 471.744 501.434 473.372 501.434C475.001 501.434 476.321 500.103 476.321 498.461C476.321 496.818 475.001 495.487 473.372 495.487C471.744 495.487 470.424 496.818 470.424 498.461Z" fill="#CDAEF4"/>
<path d="M470.424 519.229C470.424 520.871 471.744 522.202 473.372 522.202C475.001 522.202 476.321 520.871 476.321 519.229C476.321 517.586 475.001 516.255 473.372 516.255C471.744 516.255 470.424 517.586 470.424 519.229Z" fill="#CDAEF4"/>
<path d="M563.7 111.974C563.7 113.617 565.02 114.948 566.649 114.948C568.277 114.948 569.598 113.617 569.598 111.974C569.598 110.332 568.277 109.001 566.649 109.001C565.02 109.001 563.7 110.332 563.7 111.974Z" fill="#CDAEF4"/>
<path d="M563.701 132.728C563.701 134.37 565.021 135.702 566.649 135.702C568.278 135.702 569.598 134.37 569.598 132.728C569.598 131.086 568.278 129.754 566.649 129.754C565.021 129.754 563.701 131.086 563.701 132.728Z" fill="#CDAEF4"/>
<path d="M563.701 153.5C563.701 155.143 565.021 156.474 566.649 156.474C568.278 156.474 569.598 155.143 569.598 153.5C569.598 151.858 568.278 150.527 566.649 150.527C565.021 150.527 563.701 151.858 563.701 153.5Z" fill="#CDAEF4"/>
<path d="M543.103 111.974C543.103 113.616 544.423 114.948 546.052 114.948C547.68 114.948 549 113.616 549 111.974C549 110.331 547.68 109 546.052 109C544.423 109 543.103 110.331 543.103 111.974Z" fill="#CDAEF4"/>
<path d="M543.103 132.73C543.103 134.372 544.423 135.704 546.052 135.704C547.68 135.704 549 134.372 549 132.73C549 131.088 547.68 129.756 546.052 129.756C544.423 129.756 543.103 131.088 543.103 132.73Z" fill="#CDAEF4"/>
<path d="M543.103 153.5C543.103 155.143 544.423 156.474 546.052 156.474C547.68 156.474 549 155.143 549 153.5C549 151.858 547.68 150.526 546.052 150.526C544.423 150.526 543.103 151.858 543.103 153.5Z" fill="#CDAEF4"/>
<path d="M162.592 662.983C162.592 664.626 163.913 665.957 165.541 665.957C167.17 665.957 168.49 664.626 168.49 662.983C168.49 661.341 167.17 660.009 165.541 660.009C163.913 660.009 162.592 661.341 162.592 662.983Z" fill="#CDAEF4"/>
<path d="M141.995 662.983C141.995 664.626 143.315 665.957 144.944 665.957C146.572 665.957 147.892 664.626 147.892 662.983C147.892 661.341 146.572 660.009 144.944 660.009C143.315 660.009 141.995 661.341 141.995 662.983Z" fill="#CDAEF4"/>
<path d="M121.413 662.983C121.413 664.626 122.733 665.957 124.362 665.957C125.99 665.957 127.311 664.626 127.311 662.983C127.311 661.341 125.99 660.009 124.362 660.009C122.733 660.009 121.413 661.341 121.413 662.983Z" fill="#CDAEF4"/>
<path d="M100.816 662.983C100.816 664.626 102.136 665.957 103.765 665.957C105.393 665.957 106.713 664.626 106.713 662.983C106.713 661.341 105.393 660.009 103.765 660.009C102.136 660.009 100.816 661.341 100.816 662.983Z" fill="#CDAEF4"/>
<path d="M80.2343 662.983C80.2343 664.626 81.5545 665.957 83.183 665.957C84.8115 665.957 86.1317 664.626 86.1317 662.983C86.1317 661.341 84.8115 660.009 83.183 660.009C81.5545 660.009 80.2343 661.341 80.2343 662.983Z" fill="#CDAEF4"/>
<path d="M59.6369 662.983C59.6369 664.626 60.9571 665.957 62.5856 665.957C64.2141 665.957 65.5343 664.626 65.5343 662.983C65.5343 661.341 64.2141 660.009 62.5856 660.009C60.9571 660.009 59.6369 661.341 59.6369 662.983Z" fill="#CDAEF4"/>
<path d="M39.055 662.983C39.055 664.626 40.3752 665.957 42.0037 665.957C43.6322 665.957 44.9524 664.626 44.9524 662.983C44.9524 661.341 43.6322 660.009 42.0037 660.009C40.3752 660.009 39.055 661.341 39.055 662.983Z" fill="#CDAEF4"/>
<path d="M162.592 642.212C162.592 643.854 163.913 645.186 165.541 645.186C167.17 645.186 168.49 643.854 168.49 642.212C168.49 640.57 167.17 639.238 165.541 639.238C163.913 639.238 162.592 640.57 162.592 642.212Z" fill="#CDAEF4"/>
<path d="M141.995 642.212C141.995 643.854 143.315 645.186 144.944 645.186C146.572 645.186 147.892 643.854 147.892 642.212C147.892 640.57 146.572 639.238 144.944 639.238C143.315 639.238 141.995 640.57 141.995 642.212Z" fill="#CDAEF4"/>
<path d="M121.413 642.212C121.413 643.854 122.733 645.186 124.362 645.186C125.99 645.186 127.311 643.854 127.311 642.212C127.311 640.57 125.99 639.238 124.362 639.238C122.733 639.238 121.413 640.57 121.413 642.212Z" fill="#CDAEF4"/>
<path d="M100.816 642.212C100.816 643.854 102.136 645.186 103.765 645.186C105.393 645.186 106.713 643.854 106.713 642.212C106.713 640.57 105.393 639.238 103.765 639.238C102.136 639.238 100.816 640.57 100.816 642.212Z" fill="#CDAEF4"/>
<path d="M80.2343 642.212C80.2343 643.854 81.5545 645.186 83.183 645.186C84.8115 645.186 86.1317 643.854 86.1317 642.212C86.1317 640.57 84.8115 639.238 83.183 639.238C81.5545 639.238 80.2343 640.57 80.2343 642.212Z" fill="#CDAEF4"/>
<path d="M59.6368 642.212C59.6368 643.854 60.9569 645.186 62.5855 645.186C64.214 645.186 65.5342 643.854 65.5342 642.212C65.5342 640.57 64.214 639.238 62.5855 639.238C60.9569 639.238 59.6368 640.57 59.6368 642.212Z" fill="#CDAEF4"/>
<path d="M39.055 642.212C39.055 643.854 40.3752 645.186 42.0037 645.186C43.6322 645.186 44.9524 643.854 44.9524 642.212C44.9524 640.57 43.6322 639.238 42.0037 639.238C40.3752 639.238 39.055 640.57 39.055 642.212Z" fill="#CDAEF4"/>
<path d="M162.592 621.456C162.592 623.098 163.913 624.43 165.541 624.43C167.17 624.43 168.49 623.098 168.49 621.456C168.49 619.814 167.17 618.482 165.541 618.482C163.913 618.482 162.592 619.814 162.592 621.456Z" fill="#CDAEF4"/>
<path d="M141.995 621.456C141.995 623.098 143.315 624.43 144.944 624.43C146.572 624.43 147.892 623.098 147.892 621.456C147.892 619.814 146.572 618.482 144.944 618.482C143.315 618.482 141.995 619.814 141.995 621.456Z" fill="#CDAEF4"/>
<path d="M121.413 621.456C121.413 623.098 122.733 624.43 124.362 624.43C125.99 624.43 127.311 623.098 127.311 621.456C127.311 619.814 125.99 618.482 124.362 618.482C122.733 618.482 121.413 619.814 121.413 621.456Z" fill="#CDAEF4"/>
<path d="M100.816 621.456C100.816 623.098 102.136 624.43 103.765 624.43C105.393 624.43 106.713 623.098 106.713 621.456C106.713 619.814 105.393 618.482 103.765 618.482C102.136 618.482 100.816 619.814 100.816 621.456Z" fill="#CDAEF4"/>
<path d="M80.2343 621.456C80.2343 623.098 81.5545 624.43 83.183 624.43C84.8115 624.43 86.1317 623.098 86.1317 621.456C86.1317 619.814 84.8115 618.482 83.183 618.482C81.5545 618.482 80.2343 619.814 80.2343 621.456Z" fill="#CDAEF4"/>
<path d="M59.6368 621.456C59.6368 623.098 60.9569 624.43 62.5855 624.43C64.214 624.43 65.5342 623.098 65.5342 621.456C65.5342 619.814 64.214 618.482 62.5855 618.482C60.9569 618.482 59.6368 619.814 59.6368 621.456Z" fill="#CDAEF4"/>
<path d="M39.055 621.456C39.055 623.098 40.3752 624.43 42.0037 624.43C43.6322 624.43 44.9524 623.098 44.9524 621.456C44.9524 619.814 43.6322 618.482 42.0037 618.482C40.3752 618.482 39.055 619.814 39.055 621.456Z" fill="#CDAEF4"/>
<path d="M162.59 600.686C162.59 602.328 163.911 603.66 165.539 603.66C167.168 603.66 168.488 602.328 168.488 600.686C168.488 599.043 167.168 597.712 165.539 597.712C163.911 597.712 162.59 599.043 162.59 600.686Z" fill="#CDAEF4"/>
<path d="M141.995 600.685C141.995 602.328 143.315 603.659 144.944 603.659C146.572 603.659 147.892 602.328 147.892 600.685C147.892 599.043 146.572 597.712 144.944 597.712C143.315 597.712 141.995 599.043 141.995 600.685Z" fill="#CDAEF4"/>
<path d="M121.413 600.685C121.413 602.328 122.733 603.659 124.362 603.659C125.99 603.659 127.311 602.328 127.311 600.685C127.311 599.043 125.99 597.712 124.362 597.712C122.733 597.712 121.413 599.043 121.413 600.685Z" fill="#CDAEF4"/>
<path d="M100.816 600.685C100.816 602.328 102.136 603.659 103.765 603.659C105.393 603.659 106.713 602.328 106.713 600.685C106.713 599.043 105.393 597.712 103.765 597.712C102.136 597.712 100.816 599.043 100.816 600.685Z" fill="#CDAEF4"/>
<path d="M80.2343 600.685C80.2343 602.328 81.5545 603.659 83.183 603.659C84.8115 603.659 86.1317 602.328 86.1317 600.685C86.1317 599.043 84.8115 597.712 83.183 597.712C81.5545 597.712 80.2343 599.043 80.2343 600.685Z" fill="#CDAEF4"/>
<path d="M59.6368 600.685C59.6368 602.328 60.9569 603.659 62.5855 603.659C64.214 603.659 65.5342 602.328 65.5342 600.685C65.5342 599.043 64.214 597.712 62.5855 597.712C60.9569 597.712 59.6368 599.043 59.6368 600.685Z" fill="#CDAEF4"/>
<path d="M39.055 600.685C39.055 602.328 40.3752 603.659 42.0037 603.659C43.6322 603.659 44.9524 602.328 44.9524 600.685C44.9524 599.043 43.6322 597.712 42.0037 597.712C40.3752 597.712 39.055 599.043 39.055 600.685Z" fill="#CDAEF4"/>
<path d="M93.3545 368L93.3545 363.939L97.5469 363.148L97.5469 334.487L93.3545 333.696L93.3545 329.609L108.7 329.609L108.7 333.696L104.191 334.487L104.191 362.911L116.188 362.911L116.637 357.084L121.726 357.084L121.726 368L93.3545 368ZM138.706 368.554C135.964 368.554 133.608 367.938 131.64 366.708C129.671 365.46 128.159 363.746 127.104 361.566C126.05 359.387 125.522 356.873 125.522 354.025L125.522 353.472C125.522 350.642 126.05 348.137 127.104 345.957C128.159 343.777 129.671 342.063 131.64 340.815C133.608 339.567 135.946 338.943 138.653 338.943C141.396 338.943 143.751 339.567 145.72 340.815C147.688 342.046 149.2 343.76 150.255 345.957C151.31 348.137 151.837 350.642 151.837 353.472L151.837 354.025C151.837 356.891 151.31 359.413 150.255 361.593C149.2 363.772 147.688 365.478 145.72 366.708C143.769 367.938 141.431 368.554 138.706 368.554ZM138.706 363.438C140.903 363.438 142.538 362.568 143.61 360.828C144.683 359.07 145.219 356.803 145.219 354.025L145.219 353.472C145.219 350.747 144.674 348.506 143.584 346.748C142.512 344.973 140.868 344.085 138.653 344.085C136.456 344.085 134.821 344.973 133.749 346.748C132.694 348.506 132.167 350.747 132.167 353.472L132.167 354.025C132.167 356.803 132.694 359.07 133.749 360.828C134.821 362.568 136.474 363.438 138.706 363.438ZM168.659 379.522C167.253 379.522 165.688 379.329 163.966 378.942C162.261 378.573 160.758 378.055 159.457 377.387L160.828 372.509C161.953 373.036 163.192 373.458 164.546 373.774C165.899 374.091 167.183 374.249 168.396 374.249C170.575 374.249 172.166 373.643 173.168 372.43C174.187 371.234 174.697 369.538 174.697 367.341L174.697 365.1C172.887 367.402 170.452 368.554 167.394 368.554C165.056 368.554 163.052 367.974 161.382 366.813C159.712 365.653 158.429 364.027 157.532 361.936C156.653 359.844 156.214 357.418 156.214 354.658L156.214 354.105C156.214 351.081 156.653 348.436 157.532 346.168C158.429 343.883 159.703 342.107 161.355 340.842C163.008 339.576 164.994 338.943 167.314 338.943C169.055 338.943 170.566 339.304 171.85 340.024C173.133 340.728 174.223 341.738 175.119 343.057L175.62 339.471L184.77 339.471L184.77 343.558L181.342 344.296L181.342 367.367C181.342 371.094 180.226 374.047 177.993 376.227C175.761 378.424 172.649 379.522 168.659 379.522ZM169.187 363.307C171.665 363.307 173.502 362.243 174.697 360.116L174.697 347.407C174.117 346.405 173.37 345.623 172.456 345.061C171.542 344.48 170.461 344.19 169.213 344.19C167.033 344.19 165.425 345.113 164.388 346.959C163.368 348.787 162.858 351.169 162.858 354.105L162.858 354.658C162.858 357.295 163.359 359.396 164.361 360.96C165.381 362.524 166.989 363.307 169.187 363.307ZM187.063 368L187.063 363.939L191.019 363.148L191.019 344.349L186.826 343.558L186.826 339.471L197.663 339.471L197.663 363.148L201.592 363.939L201.592 368L187.063 368ZM190.755 333.011L190.755 326.867L197.663 326.867L197.663 333.011L190.755 333.011ZM204.439 368L204.439 363.939L208.395 363.148L208.395 344.349L204.229 343.558L204.229 339.471L214.512 339.471L214.854 343.61C215.804 342.134 216.981 340.991 218.388 340.183C219.812 339.356 221.42 338.943 223.213 338.943C226.148 338.943 228.434 339.849 230.068 341.659C231.703 343.47 232.521 346.282 232.521 350.097L232.521 363.148L236.476 363.939L236.476 368L222.158 368L222.158 363.939L225.876 363.148L225.876 350.149C225.876 347.987 225.445 346.458 224.584 345.562C223.723 344.647 222.439 344.19 220.734 344.19C219.469 344.19 218.353 344.48 217.386 345.061C216.419 345.623 215.637 346.414 215.039 347.434L215.039 363.148L218.651 363.939L218.651 368L204.439 368ZM253.14 368L253.14 363.939L257.068 363.148L257.068 344.349L252.902 343.558L252.902 339.471L263.186 339.471L263.528 343.057L263.581 343.637C265.11 340.508 267.325 338.943 270.226 338.943C271.315 338.943 272.291 339.084 273.152 339.365L272.388 345.509L268.67 345.298C267.457 345.228 266.455 345.465 265.664 346.01C264.873 346.555 264.223 347.311 263.713 348.277L263.713 363.148L267.668 363.939L267.668 368L253.14 368ZM288.709 368.554C286.002 368.554 283.655 367.956 281.669 366.761C279.683 365.548 278.136 363.878 277.028 361.751C275.938 359.624 275.394 357.189 275.394 354.447L275.394 353.34C275.394 350.563 275.93 348.093 277.002 345.931C278.092 343.751 279.577 342.046 281.458 340.815C283.356 339.567 285.527 338.943 287.971 338.943C291.82 338.943 294.747 340.086 296.751 342.371C298.772 344.656 299.783 347.794 299.783 351.784L299.783 355.581L282.275 355.581L282.223 355.713C282.328 357.963 282.979 359.817 284.174 361.276C285.369 362.718 287.074 363.438 289.289 363.438C290.836 363.438 292.242 363.228 293.508 362.806C294.773 362.384 295.951 361.786 297.041 361.013L299.098 365.179C297.973 366.146 296.54 366.954 294.8 367.605C293.077 368.237 291.047 368.554 288.709 368.554ZM282.381 350.914L293.429 350.914L293.429 350.229C293.429 348.365 292.989 346.854 292.11 345.693C291.249 344.533 289.896 343.953 288.05 343.953C286.433 343.953 285.123 344.604 284.121 345.904C283.137 347.205 282.53 348.831 282.302 350.782L282.381 350.914ZM313.125 368.554C310.225 368.554 307.966 367.807 306.349 366.313C304.731 364.818 303.923 362.762 303.923 360.143C303.923 357.453 305.013 355.273 307.192 353.604C309.39 351.934 312.536 351.099 316.632 351.099L320.982 351.099L320.982 348.699C320.982 347.188 320.525 345.983 319.611 345.087C318.715 344.19 317.405 343.742 315.683 343.742C314.698 343.742 313.828 343.865 313.072 344.111C312.316 344.34 311.64 344.674 311.042 345.113L310.462 348.963L305.558 348.963L305.505 341.923C306.894 340.991 308.449 340.262 310.172 339.734C311.912 339.207 313.837 338.943 315.946 338.943C319.567 338.943 322.415 339.796 324.489 341.501C326.581 343.206 327.627 345.632 327.627 348.778L327.627 361.355C327.627 361.742 327.627 362.12 327.627 362.489C327.645 362.841 327.671 363.201 327.706 363.57L330.606 363.939L330.606 368L321.932 368C321.756 367.385 321.589 366.787 321.431 366.207C321.29 365.627 321.185 365.047 321.114 364.467C320.165 365.662 319.014 366.646 317.66 367.42C316.307 368.176 314.795 368.554 313.125 368.554ZM314.628 363.412C315.981 363.412 317.229 363.105 318.372 362.489C319.532 361.856 320.402 361.065 320.982 360.116L320.982 355.344L316.553 355.344C314.566 355.344 313.063 355.81 312.044 356.741C311.042 357.655 310.541 358.728 310.541 359.958C310.541 362.261 311.903 363.412 314.628 363.412ZM333.56 368L333.56 363.939L337.541 363.148L337.541 331.745L333.322 330.954L333.322 326.867L344.186 326.867L344.186 363.148L348.141 363.939L348.141 368L333.56 368ZM350.962 368L350.962 363.939L354.917 363.148L354.917 344.349L350.725 343.558L350.725 339.471L361.562 339.471L361.562 363.148L365.49 363.939L365.49 368L350.962 368ZM354.653 333.011L354.653 326.867L361.562 326.867L361.562 333.011L354.653 333.011ZM369.05 368L369.05 363.834L384.185 344.27L375.246 344.27L374.481 349.121L369.551 349.121L369.551 339.471L392.227 339.471L392.227 343.821L377.514 363.148L387.322 363.148L388.271 358.06L393.018 358.06L393.018 368L369.05 368ZM406.307 368.554C403.406 368.554 401.147 367.807 399.53 366.313C397.913 364.818 397.104 362.762 397.104 360.143C397.104 357.453 398.194 355.273 400.374 353.604C402.571 351.934 405.718 351.099 409.813 351.099L414.164 351.099L414.164 348.699C414.164 347.188 413.707 345.983 412.793 345.087C411.896 344.19 410.587 343.742 408.864 343.742C407.88 343.742 407.01 343.865 406.254 344.111C405.498 344.34 404.821 344.674 404.224 345.113L403.644 348.963L398.739 348.963L398.687 341.923C400.075 340.991 401.631 340.262 403.354 339.734C405.094 339.207 407.019 338.943 409.128 338.943C412.749 338.943 415.597 339.796 417.671 341.501C419.763 343.206 420.809 345.632 420.809 348.778L420.809 361.355C420.809 361.742 420.809 362.12 420.809 362.489C420.826 362.841 420.853 363.201 420.888 363.57L423.788 363.939L423.788 368L415.113 368C414.937 367.385 414.771 366.787 414.612 366.207C414.472 365.627 414.366 365.047 414.296 364.467C413.347 365.662 412.195 366.646 410.842 367.42C409.488 368.176 407.977 368.554 406.307 368.554ZM407.81 363.412C409.163 363.412 410.411 363.105 411.554 362.489C412.714 361.856 413.584 361.065 414.164 360.116L414.164 355.344L409.734 355.344C407.748 355.344 406.245 355.81 405.226 356.741C404.224 357.655 403.723 358.728 403.723 359.958C403.723 362.261 405.085 363.412 407.81 363.412ZM438.185 368.554C435.882 368.554 433.913 367.974 432.278 366.813C430.644 365.653 429.387 364.036 428.508 361.962C427.646 359.87 427.216 357.436 427.216 354.658L427.216 354.105C427.216 351.081 427.646 348.436 428.508 346.168C429.387 343.883 430.644 342.107 432.278 340.842C433.913 339.576 435.873 338.943 438.158 338.943C439.793 338.943 441.217 339.26 442.43 339.893C443.66 340.508 444.715 341.396 445.594 342.556L445.594 331.745L441.401 330.954L441.401 326.867L452.238 326.867L452.238 363.148L456.193 363.939L456.193 368L446.49 368L445.963 364.546C444.117 367.218 441.524 368.554 438.185 368.554ZM440.057 363.307C441.322 363.307 442.412 363.025 443.326 362.463C444.24 361.9 444.996 361.101 445.594 360.063L445.594 347.486C445.014 346.449 444.258 345.641 443.326 345.061C442.412 344.48 441.34 344.19 440.109 344.19C437.947 344.19 436.365 345.105 435.363 346.933C434.361 348.761 433.86 351.151 433.86 354.105L433.86 354.658C433.86 357.295 434.344 359.396 435.311 360.96C436.295 362.524 437.877 363.307 440.057 363.307ZM472.356 368.554C469.614 368.554 467.259 367.938 465.29 366.708C463.321 365.46 461.81 363.746 460.755 361.566C459.7 359.387 459.173 356.873 459.173 354.025L459.173 353.472C459.173 350.642 459.7 348.137 460.755 345.957C461.81 343.777 463.321 342.063 465.29 340.815C467.259 339.567 469.597 338.943 472.304 338.943C475.046 338.943 477.401 339.567 479.37 340.815C481.339 342.046 482.851 343.76 483.905 345.957C484.96 348.137 485.487 350.642 485.487 353.472L485.487 354.025C485.487 356.891 484.96 359.413 483.905 361.593C482.851 363.772 481.339 365.478 479.37 366.708C477.419 367.938 475.081 368.554 472.356 368.554ZM472.356 363.438C474.554 363.438 476.188 362.568 477.261 360.828C478.333 359.07 478.869 356.803 478.869 354.025L478.869 353.472C478.869 350.747 478.324 348.506 477.234 346.748C476.162 344.973 474.519 344.085 472.304 344.085C470.106 344.085 468.472 344.973 467.399 346.748C466.345 348.506 465.817 350.747 465.817 353.472L465.817 354.025C465.817 356.803 466.345 359.07 467.399 360.828C468.472 362.568 470.124 363.438 472.356 363.438ZM135.384 439.554C132.712 439.554 130.392 438.947 128.423 437.734C126.472 436.504 124.96 434.816 123.888 432.672C122.833 430.51 122.306 428.022 122.306 425.21L122.306 424.287C122.306 421.527 122.833 419.066 123.888 416.904C124.942 414.742 126.445 413.046 128.396 411.815C130.365 410.567 132.686 409.943 135.357 409.943C137.801 409.943 139.928 410.339 141.738 411.13C143.549 411.903 145.034 412.87 146.194 414.03L146.221 421.65L141.158 421.65L140.183 416.614C139.69 416.105 139.066 415.7 138.311 415.401C137.555 415.085 136.729 414.927 135.832 414.927C133.635 414.927 131.938 415.797 130.743 417.537C129.548 419.26 128.95 421.51 128.95 424.287L128.95 425.21C128.95 428.233 129.548 430.527 130.743 432.092C131.956 433.656 133.512 434.438 135.41 434.438C136.922 434.438 138.161 434.025 139.128 433.199C140.095 432.373 140.728 431.23 141.026 429.771L146.774 429.771L146.854 429.93C146.537 432.725 145.456 435.027 143.61 436.838C141.782 438.648 139.04 439.554 135.384 439.554ZM164.124 439.554C161.382 439.554 159.026 438.938 157.058 437.708C155.089 436.46 153.577 434.746 152.522 432.566C151.468 430.387 150.94 427.873 150.94 425.025L150.94 424.472C150.94 421.642 151.468 419.137 152.522 416.957C153.577 414.777 155.089 413.063 157.058 411.815C159.026 410.567 161.364 409.943 164.071 409.943C166.813 409.943 169.169 410.567 171.138 411.815C173.106 413.046 174.618 414.76 175.673 416.957C176.728 419.137 177.255 421.642 177.255 424.472L177.255 425.025C177.255 427.891 176.728 430.413 175.673 432.593C174.618 434.772 173.106 436.478 171.138 437.708C169.187 438.938 166.849 439.554 164.124 439.554ZM164.124 434.438C166.321 434.438 167.956 433.568 169.028 431.828C170.101 430.07 170.637 427.803 170.637 425.025L170.637 424.472C170.637 421.747 170.092 419.506 169.002 417.748C167.93 415.973 166.286 415.085 164.071 415.085C161.874 415.085 160.239 415.973 159.167 417.748C158.112 419.506 157.585 421.747 157.585 424.472L157.585 425.025C157.585 427.803 158.112 430.07 159.167 431.828C160.239 433.568 161.892 434.438 164.124 434.438ZM180.762 439L180.762 434.939L184.743 434.148L184.743 415.349L180.551 414.558L180.551 410.471L190.834 410.471L191.15 414.215C192.064 412.861 193.225 411.815 194.631 411.077C196.037 410.321 197.663 409.943 199.509 409.943C201.372 409.943 202.963 410.365 204.281 411.209C205.617 412.035 206.628 413.292 207.313 414.98C208.192 413.415 209.344 412.185 210.768 411.288C212.209 410.392 213.896 409.943 215.83 409.943C218.678 409.943 220.928 410.919 222.58 412.87C224.232 414.821 225.059 417.774 225.059 421.73L225.059 434.148L229.04 434.939L229.04 439L214.67 439L214.67 434.939L218.414 434.148L218.414 421.677C218.414 419.286 218.01 417.607 217.201 416.641C216.393 415.674 215.206 415.19 213.642 415.19C212.183 415.19 210.979 415.656 210.029 416.588C209.098 417.502 208.491 418.688 208.21 420.147L208.21 434.148L211.822 434.939L211.822 439L197.979 439L197.979 434.939L201.592 434.148L201.592 421.677C201.592 419.374 201.179 417.722 200.353 416.72C199.526 415.7 198.331 415.19 196.767 415.19C195.466 415.19 194.367 415.454 193.471 415.981C192.592 416.509 191.889 417.256 191.361 418.223L191.361 434.148L195.105 434.939L195.105 439L180.762 439ZM257.437 439.554C255.398 439.554 253.491 439.36 251.716 438.974C249.958 438.569 248.191 437.98 246.416 437.207L246.337 429.666L251.109 429.666L252.111 433.779C252.885 434.131 253.667 434.395 254.458 434.57C255.249 434.746 256.137 434.834 257.121 434.834C259.02 434.834 260.355 434.5 261.129 433.832C261.92 433.164 262.315 432.338 262.315 431.354C262.315 430.422 261.902 429.613 261.076 428.928C260.268 428.242 258.712 427.653 256.409 427.161C252.981 426.423 250.468 425.351 248.868 423.944C247.269 422.521 246.469 420.675 246.469 418.407C246.469 416.86 246.882 415.445 247.708 414.162C248.552 412.879 249.782 411.859 251.399 411.104C253.034 410.348 255.038 409.97 257.411 409.97C259.573 409.97 261.489 410.198 263.159 410.655C264.847 411.095 266.279 411.684 267.457 412.422L267.642 419.673L262.896 419.673L262.078 415.902C260.936 415.094 259.477 414.689 257.701 414.689C256.242 414.689 255.091 415.015 254.247 415.665C253.403 416.298 252.981 417.098 252.981 418.064C252.981 418.908 253.315 419.638 253.983 420.253C254.651 420.868 256.128 421.431 258.413 421.94C262.122 422.802 264.776 423.927 266.376 425.315C267.976 426.704 268.775 428.541 268.775 430.826C268.775 433.375 267.844 435.467 265.98 437.102C264.117 438.736 261.27 439.554 257.437 439.554ZM284.938 439.554C281.88 439.554 279.489 438.587 277.767 436.653C276.062 434.702 275.209 431.679 275.209 427.583L275.209 415.349L271.992 414.558L271.992 410.471L281.854 410.471L281.854 427.636C281.854 430.097 282.24 431.828 283.014 432.83C283.805 433.814 285.018 434.307 286.652 434.307C289.5 434.307 291.53 433.208 292.743 431.011L292.743 415.349L289.157 414.558L289.157 410.471L299.388 410.471L299.388 434.148L302.763 434.939L302.763 439L293.508 439L293.06 435.124C292.163 436.548 291.021 437.646 289.632 438.42C288.261 439.176 286.696 439.554 284.938 439.554ZM319.11 439.554C316.438 439.554 314.118 438.947 312.149 437.734C310.198 436.504 308.687 434.816 307.614 432.672C306.56 430.51 306.032 428.022 306.032 425.21L306.032 424.287C306.032 421.527 306.56 419.066 307.614 416.904C308.669 414.742 310.172 413.046 312.123 411.815C314.092 410.567 316.412 409.943 319.084 409.943C321.527 409.943 323.654 410.339 325.465 411.13C327.275 411.903 328.761 412.87 329.921 414.03L329.947 421.65L324.885 421.65L323.909 416.614C323.417 416.105 322.793 415.7 322.037 415.401C321.281 415.085 320.455 414.927 319.559 414.927C317.361 414.927 315.665 415.797 314.47 417.537C313.274 419.26 312.677 421.51 312.677 424.287L312.677 425.21C312.677 428.233 313.274 430.527 314.47 432.092C315.683 433.656 317.238 434.438 319.137 434.438C320.648 434.438 321.888 434.025 322.854 433.199C323.821 432.373 324.454 431.23 324.753 429.771L330.501 429.771L330.58 429.93C330.264 432.725 329.183 435.027 327.337 436.838C325.509 438.648 322.767 439.554 319.11 439.554ZM347.93 439.554C345.223 439.554 342.876 438.956 340.89 437.761C338.903 436.548 337.356 434.878 336.249 432.751C335.159 430.624 334.614 428.189 334.614 425.447L334.614 424.34C334.614 421.563 335.15 419.093 336.223 416.931C337.312 414.751 338.798 413.046 340.679 411.815C342.577 410.567 344.748 409.943 347.191 409.943C351.041 409.943 353.968 411.086 355.972 413.371C357.993 415.656 359.004 418.794 359.004 422.784L359.004 426.581L341.496 426.581L341.443 426.713C341.549 428.963 342.199 430.817 343.395 432.276C344.59 433.718 346.295 434.438 348.51 434.438C350.057 434.438 351.463 434.228 352.729 433.806C353.994 433.384 355.172 432.786 356.262 432.013L358.318 436.179C357.193 437.146 355.761 437.954 354.021 438.605C352.298 439.237 350.268 439.554 347.93 439.554ZM341.602 421.914L352.649 421.914L352.649 421.229C352.649 419.365 352.21 417.854 351.331 416.693C350.47 415.533 349.116 414.953 347.271 414.953C345.653 414.953 344.344 415.604 343.342 416.904C342.357 418.205 341.751 419.831 341.522 421.782L341.602 421.914ZM374.771 439.554C372.732 439.554 370.825 439.36 369.05 438.974C367.292 438.569 365.525 437.98 363.75 437.207L363.671 429.666L368.443 429.666L369.445 433.779C370.219 434.131 371.001 434.395 371.792 434.57C372.583 434.746 373.471 434.834 374.455 434.834C376.354 434.834 377.689 434.5 378.463 433.832C379.254 433.164 379.649 432.338 379.649 431.354C379.649 430.422 379.236 429.613 378.41 428.928C377.602 428.242 376.046 427.653 373.743 427.161C370.315 426.423 367.802 425.351 366.202 423.944C364.603 422.521 363.803 420.675 363.803 418.407C363.803 416.86 364.216 415.445 365.042 414.162C365.886 412.879 367.116 411.859 368.733 411.104C370.368 410.348 372.372 409.97 374.745 409.97C376.907 409.97 378.823 410.198 380.493 410.655C382.181 411.095 383.613 411.684 384.791 412.422L384.976 419.673L380.229 419.673L379.412 415.902C378.27 415.094 376.811 414.689 375.035 414.689C373.576 414.689 372.425 415.015 371.581 415.665C370.737 416.298 370.315 417.098 370.315 418.064C370.315 418.908 370.649 419.638 371.317 420.253C371.985 420.868 373.462 421.431 375.747 421.94C379.456 422.802 382.11 423.927 383.71 425.315C385.31 426.704 386.109 428.541 386.109 430.826C386.109 433.375 385.178 435.467 383.314 437.102C381.451 438.736 378.604 439.554 374.771 439.554ZM401.93 439.554C399.891 439.554 397.983 439.36 396.208 438.974C394.45 438.569 392.684 437.98 390.908 437.207L390.829 429.666L395.602 429.666L396.604 433.779C397.377 434.131 398.159 434.395 398.95 434.57C399.741 434.746 400.629 434.834 401.613 434.834C403.512 434.834 404.848 434.5 405.621 433.832C406.412 433.164 406.808 432.338 406.808 431.354C406.808 430.422 406.395 429.613 405.568 428.928C404.76 428.242 403.204 427.653 400.901 427.161C397.474 426.423 394.96 425.351 393.36 423.944C391.761 422.521 390.961 420.675 390.961 418.407C390.961 416.86 391.374 415.445 392.2 414.162C393.044 412.879 394.274 411.859 395.892 411.104C397.526 410.348 399.53 409.97 401.903 409.97C404.065 409.97 405.981 410.198 407.651 410.655C409.339 411.095 410.771 411.684 411.949 412.422L412.134 419.673L407.388 419.673L406.57 415.902C405.428 415.094 403.969 414.689 402.193 414.689C400.734 414.689 399.583 415.015 398.739 415.665C397.896 416.298 397.474 417.098 397.474 418.064C397.474 418.908 397.808 419.638 398.476 420.253C399.144 420.868 400.62 421.431 402.905 421.94C406.614 422.802 409.269 423.927 410.868 425.315C412.468 426.704 413.268 428.541 413.268 430.826C413.268 433.375 412.336 435.467 410.473 437.102C408.609 438.736 405.762 439.554 401.93 439.554ZM430.433 439.554C427.69 439.554 425.335 438.938 423.366 437.708C421.397 436.46 419.886 434.746 418.831 432.566C417.776 430.387 417.249 427.873 417.249 425.025L417.249 424.472C417.249 421.642 417.776 419.137 418.831 416.957C419.886 414.777 421.397 413.063 423.366 411.815C425.335 410.567 427.673 409.943 430.38 409.943C433.122 409.943 435.478 410.567 437.446 411.815C439.415 413.046 440.927 414.76 441.981 416.957C443.036 419.137 443.563 421.642 443.563 424.472L443.563 425.025C443.563 427.891 443.036 430.413 441.981 432.593C440.927 434.772 439.415 436.478 437.446 437.708C435.495 438.938 433.157 439.554 430.433 439.554ZM430.433 434.438C432.63 434.438 434.265 433.568 435.337 431.828C436.409 430.07 436.945 427.803 436.945 425.025L436.945 424.472C436.945 421.747 436.4 419.506 435.311 417.748C434.238 415.973 432.595 415.085 430.38 415.085C428.183 415.085 426.548 415.973 425.476 417.748C424.421 419.506 423.894 421.747 423.894 424.472L423.894 425.025C423.894 427.803 424.421 430.07 425.476 431.828C426.548 433.568 428.2 434.438 430.433 434.438ZM448.863 426.027L448.863 400.609L455.508 400.609L455.508 426.027L448.863 426.027ZM448.863 439L448.863 432.83L455.508 432.83L455.508 439L448.863 439Z" fill="white"/>
<path d="M310 271H270C256.195 271 245 259.805 245 246V206C245 192.195 256.195 181 270 181H310C323.805 181 335 192.195 335 206V246C335 259.805 323.805 271 310 271Z" stroke="#04D361" stroke-width="6" stroke-linecap="round" stroke-linejoin="round"/>
<path d="M301.335 221L287.17 235.165L278.67 226.665" stroke="#04D361" stroke-width="6" stroke-linecap="round" stroke-linejoin="round"/>
</svg>
