<svg width="176" height="200" viewBox="0 0 176 200" fill="none" xmlns="http://www.w3.org/2000/svg">
<path d="M108 103H68C54.195 103 43 91.805 43 78V38C43 24.195 54.195 13 68 13H108C121.805 13 133 24.195 133 38V78C133 91.805 121.805 103 108 103Z" stroke="#04D361" stroke-width="6" stroke-linecap="round" stroke-linejoin="round"/>
<path d="M99.3344 53L85.1694 67.165L76.6694 58.665" stroke="#04D361" stroke-width="6" stroke-linecap="round" stroke-linejoin="round"/>
<path d="M0.824219 161L0.824219 159.195L2.6875 158.844L2.6875 146.105L0.824219 145.754L0.824219 143.937L7.64453 143.937L7.64453 145.754L5.64062 146.105L5.64062 158.738L10.9727 158.738L11.1719 156.148L13.4336 156.148L13.4336 161L0.824219 161ZM20.9805 161.246C19.7617 161.246 18.7148 160.973 17.8398 160.426C16.9648 159.871 16.293 159.109 15.8242 158.141C15.3555 157.172 15.1211 156.055 15.1211 154.789L15.1211 154.543C15.1211 153.285 15.3555 152.172 15.8242 151.203C16.293 150.234 16.9648 149.473 17.8398 148.918C18.7148 148.363 19.7539 148.086 20.957 148.086C22.1758 148.086 23.2227 148.363 24.0977 148.918C24.9727 149.465 25.6445 150.227 26.1133 151.203C26.582 152.172 26.8164 153.285 26.8164 154.543L26.8164 154.789C26.8164 156.062 26.582 157.184 26.1133 158.152C25.6445 159.121 24.9727 159.879 24.0977 160.426C23.2305 160.973 22.1914 161.246 20.9805 161.246ZM20.9805 158.973C21.957 158.973 22.6836 158.586 23.1602 157.812C23.6367 157.031 23.875 156.023 23.875 154.789L23.875 154.543C23.875 153.332 23.6328 152.336 23.1484 151.555C22.6719 150.766 21.9414 150.371 20.957 150.371C19.9805 150.371 19.2539 150.766 18.7773 151.555C18.3086 152.336 18.0742 153.332 18.0742 154.543L18.0742 154.789C18.0742 156.023 18.3086 157.031 18.7773 157.812C19.2539 158.586 19.9883 158.973 20.9805 158.973ZM34.293 166.121C33.668 166.121 32.9727 166.035 32.207 165.863C31.4492 165.699 30.7812 165.469 30.2031 165.172L30.8125 163.004C31.3125 163.238 31.8633 163.426 32.4648 163.566C33.0664 163.707 33.6367 163.777 34.1758 163.777C35.1445 163.777 35.8516 163.508 36.2969 162.969C36.75 162.437 36.9766 161.684 36.9766 160.707L36.9766 159.711C36.1719 160.734 35.0898 161.246 33.7305 161.246C32.6914 161.246 31.8008 160.988 31.0586 160.473C30.3164 159.957 29.7461 159.234 29.3477 158.305C28.957 157.375 28.7617 156.297 28.7617 155.07L28.7617 154.824C28.7617 153.48 28.957 152.305 29.3477 151.297C29.7461 150.281 30.3125 149.492 31.0469 148.93C31.7812 148.367 32.6641 148.086 33.6953 148.086C34.4687 148.086 35.1406 148.246 35.7109 148.566C36.2812 148.879 36.7656 149.328 37.1641 149.914L37.3867 148.32L41.4531 148.32L41.4531 150.137L39.9297 150.465L39.9297 160.719C39.9297 162.375 39.4336 163.687 38.4414 164.656C37.4492 165.633 36.0664 166.121 34.293 166.121ZM34.5273 158.914C35.6289 158.914 36.4453 158.441 36.9766 157.496L36.9766 151.848C36.7187 151.402 36.3867 151.055 35.9805 150.805C35.5742 150.547 35.0937 150.418 34.5391 150.418C33.5703 150.418 32.8555 150.828 32.3945 151.648C31.9414 152.461 31.7148 153.52 31.7148 154.824L31.7148 155.07C31.7148 156.242 31.9375 157.176 32.3828 157.871C32.8359 158.566 33.5508 158.914 34.5273 158.914ZM42.4727 161L42.4727 159.195L44.2305 158.844L44.2305 150.488L42.3672 150.137L42.3672 148.32L47.1836 148.32L47.1836 158.844L48.9297 159.195L48.9297 161L42.4727 161ZM44.1133 145.449L44.1133 142.719L47.1836 142.719L47.1836 145.449L44.1133 145.449ZM50.1953 161L50.1953 159.195L51.9531 158.844L51.9531 150.488L50.1016 150.137L50.1016 148.32L54.6719 148.32L54.8242 150.16C55.2461 149.504 55.7695 148.996 56.3945 148.637C57.0273 148.27 57.7422 148.086 58.5391 148.086C59.8437 148.086 60.8594 148.488 61.5859 149.293C62.3125 150.098 62.6758 151.348 62.6758 153.043L62.6758 158.844L64.4336 159.195L64.4336 161L58.0703 161L58.0703 159.195L59.7227 158.844L59.7227 153.066C59.7227 152.105 59.5312 151.426 59.1484 151.027C58.7656 150.621 58.1953 150.418 57.4375 150.418C56.875 150.418 56.3789 150.547 55.9492 150.805C55.5195 151.055 55.1719 151.406 54.9062 151.859L54.9062 158.844L56.5117 159.195L56.5117 161L50.1953 161ZM71.8398 161L71.8398 159.195L73.5859 158.844L73.5859 150.488L71.7344 150.137L71.7344 148.32L76.3047 148.32L76.457 149.914L76.4805 150.172C77.1602 148.781 78.1445 148.086 79.4336 148.086C79.918 148.086 80.3516 148.148 80.7344 148.273L80.3945 151.004L78.7422 150.91C78.2031 150.879 77.7578 150.984 77.4062 151.227C77.0547 151.469 76.7656 151.805 76.5391 152.234L76.5391 158.844L78.2969 159.195L78.2969 161L71.8398 161ZM87.6484 161.246C86.4453 161.246 85.4023 160.98 84.5195 160.449C83.6367 159.91 82.9492 159.168 82.457 158.223C81.9727 157.277 81.7305 156.195 81.7305 154.977L81.7305 154.484C81.7305 153.25 81.9687 152.152 82.4453 151.191C82.9297 150.223 83.5898 149.465 84.4258 148.918C85.2695 148.363 86.2344 148.086 87.3203 148.086C89.0312 148.086 90.332 148.594 91.2227 149.609C92.1211 150.625 92.5703 152.02 92.5703 153.793L92.5703 155.48L84.7891 155.48L84.7656 155.539C84.8125 156.539 85.1016 157.363 85.6328 158.012C86.1641 158.652 86.9219 158.973 87.9062 158.973C88.5937 158.973 89.2187 158.879 89.7812 158.691C90.3437 158.504 90.8672 158.238 91.3516 157.895L92.2656 159.746C91.7656 160.176 91.1289 160.535 90.3555 160.824C89.5898 161.105 88.6875 161.246 87.6484 161.246ZM84.8359 153.406L89.7461 153.406L89.7461 153.102C89.7461 152.273 89.5508 151.602 89.1602 151.086C88.7773 150.57 88.1758 150.312 87.3555 150.312C86.6367 150.312 86.0547 150.602 85.6094 151.18C85.1719 151.758 84.9023 152.48 84.8008 153.348L84.8359 153.406ZM98.5 161.246C97.2109 161.246 96.207 160.914 95.4883 160.25C94.7695 159.586 94.4102 158.672 94.4102 157.508C94.4102 156.312 94.8945 155.344 95.8633 154.602C96.8398 153.859 98.2383 153.488 100.059 153.488L101.992 153.488L101.992 152.422C101.992 151.75 101.789 151.215 101.383 150.816C100.984 150.418 100.402 150.219 99.6367 150.219C99.1992 150.219 98.8125 150.273 98.4766 150.383C98.1406 150.484 97.8398 150.633 97.5742 150.828L97.3164 152.539L95.1367 152.539L95.1133 149.41C95.7305 148.996 96.4219 148.672 97.1875 148.437C97.9609 148.203 98.8164 148.086 99.7539 148.086C101.363 148.086 102.629 148.465 103.551 149.223C104.48 149.98 104.945 151.059 104.945 152.457L104.945 158.047C104.945 158.219 104.945 158.387 104.945 158.551C104.953 158.707 104.965 158.867 104.98 159.031L106.27 159.195L106.27 161L102.414 161C102.336 160.727 102.262 160.461 102.191 160.203C102.129 159.945 102.082 159.687 102.051 159.43C101.629 159.961 101.117 160.398 100.516 160.742C99.9141 161.078 99.2422 161.246 98.5 161.246ZM99.168 158.961C99.7695 158.961 100.324 158.824 100.832 158.551C101.348 158.27 101.734 157.918 101.992 157.496L101.992 155.375L100.023 155.375C99.1406 155.375 98.4727 155.582 98.0195 155.996C97.5742 156.402 97.3516 156.879 97.3516 157.426C97.3516 158.449 97.957 158.961 99.168 158.961ZM107.582 161L107.582 159.195L109.352 158.844L109.352 144.887L107.477 144.535L107.477 142.719L112.305 142.719L112.305 158.844L114.062 159.195L114.062 161L107.582 161ZM115.316 161L115.316 159.195L117.074 158.844L117.074 150.488L115.211 150.137L115.211 148.32L120.027 148.32L120.027 158.844L121.773 159.195L121.773 161L115.316 161ZM116.957 145.449L116.957 142.719L120.027 142.719L120.027 145.449L116.957 145.449ZM123.355 161L123.355 159.148L130.082 150.453L126.109 150.453L125.77 152.609L123.578 152.609L123.578 148.32L133.656 148.32L133.656 150.254L127.117 158.844L131.477 158.844L131.898 156.582L134.008 156.582L134.008 161L123.355 161ZM139.914 161.246C138.625 161.246 137.621 160.914 136.902 160.25C136.184 159.586 135.824 158.672 135.824 157.508C135.824 156.312 136.309 155.344 137.277 154.602C138.254 153.859 139.652 153.488 141.473 153.488L143.406 153.488L143.406 152.422C143.406 151.75 143.203 151.215 142.797 150.816C142.398 150.418 141.816 150.219 141.051 150.219C140.613 150.219 140.227 150.273 139.891 150.383C139.555 150.484 139.254 150.633 138.988 150.828L138.73 152.539L136.551 152.539L136.527 149.41C137.145 148.996 137.836 148.672 138.602 148.437C139.375 148.203 140.23 148.086 141.168 148.086C142.777 148.086 144.043 148.465 144.965 149.223C145.895 149.98 146.359 151.059 146.359 152.457L146.359 158.047C146.359 158.219 146.359 158.387 146.359 158.551C146.367 158.707 146.379 158.867 146.395 159.031L147.684 159.195L147.684 161L143.828 161C143.75 160.727 143.676 160.461 143.605 160.203C143.543 159.945 143.496 159.687 143.465 159.43C143.043 159.961 142.531 160.398 141.93 160.742C141.328 161.078 140.656 161.246 139.914 161.246ZM140.582 158.961C141.184 158.961 141.738 158.824 142.246 158.551C142.762 158.27 143.148 157.918 143.406 157.496L143.406 155.375L141.437 155.375C140.555 155.375 139.887 155.582 139.434 155.996C138.988 156.402 138.766 156.879 138.766 157.426C138.766 158.449 139.371 158.961 140.582 158.961ZM154.082 161.246C153.059 161.246 152.184 160.988 151.457 160.473C150.73 159.957 150.172 159.238 149.781 158.316C149.398 157.387 149.207 156.305 149.207 155.07L149.207 154.824C149.207 153.48 149.398 152.305 149.781 151.297C150.172 150.281 150.73 149.492 151.457 148.93C152.184 148.367 153.055 148.086 154.07 148.086C154.797 148.086 155.43 148.227 155.969 148.508C156.516 148.781 156.984 149.176 157.375 149.691L157.375 144.887L155.512 144.535L155.512 142.719L160.328 142.719L160.328 158.844L162.086 159.195L162.086 161L157.773 161L157.539 159.465C156.719 160.652 155.566 161.246 154.082 161.246ZM154.914 158.914C155.477 158.914 155.961 158.789 156.367 158.539C156.773 158.289 157.109 157.934 157.375 157.473L157.375 151.883C157.117 151.422 156.781 151.062 156.367 150.805C155.961 150.547 155.484 150.418 154.937 150.418C153.977 150.418 153.273 150.824 152.828 151.637C152.383 152.449 152.16 153.512 152.16 154.824L152.16 155.07C152.16 156.242 152.375 157.176 152.805 157.871C153.242 158.566 153.945 158.914 154.914 158.914ZM169.27 161.246C168.051 161.246 167.004 160.973 166.129 160.426C165.254 159.871 164.582 159.109 164.113 158.141C163.645 157.172 163.41 156.055 163.41 154.789L163.41 154.543C163.41 153.285 163.645 152.172 164.113 151.203C164.582 150.234 165.254 149.473 166.129 148.918C167.004 148.363 168.043 148.086 169.246 148.086C170.465 148.086 171.512 148.363 172.387 148.918C173.262 149.465 173.934 150.227 174.402 151.203C174.871 152.172 175.105 153.285 175.105 154.543L175.105 154.789C175.105 156.062 174.871 157.184 174.402 158.152C173.934 159.121 173.262 159.879 172.387 160.426C171.52 160.973 170.48 161.246 169.27 161.246ZM169.27 158.973C170.246 158.973 170.973 158.586 171.449 157.812C171.926 157.031 172.164 156.023 172.164 154.789L172.164 154.543C172.164 153.332 171.922 152.336 171.437 151.555C170.961 150.766 170.23 150.371 169.246 150.371C168.27 150.371 167.543 150.766 167.066 151.555C166.598 152.336 166.363 153.332 166.363 154.543L166.363 154.789C166.363 156.023 166.598 157.031 167.066 157.812C167.543 158.586 168.277 158.973 169.27 158.973ZM19.5039 193.246C18.3164 193.246 17.2852 192.977 16.4102 192.437C15.543 191.891 14.8711 191.141 14.3945 190.187C13.9258 189.227 13.6914 188.121 13.6914 186.871L13.6914 186.461C13.6914 185.234 13.9258 184.141 14.3945 183.18C14.8633 182.219 15.5312 181.465 16.3984 180.918C17.2734 180.363 18.3047 180.086 19.4922 180.086C20.5781 180.086 21.5234 180.262 22.3281 180.613C23.1328 180.957 23.793 181.387 24.3086 181.902L24.3203 185.289L22.0703 185.289L21.6367 183.051C21.418 182.824 21.1406 182.645 20.8047 182.512C20.4687 182.371 20.1016 182.301 19.7031 182.301C18.7266 182.301 17.9727 182.687 17.4414 183.461C16.9102 184.227 16.6445 185.227 16.6445 186.461L16.6445 186.871C16.6445 188.215 16.9102 189.234 17.4414 189.93C17.9805 190.625 18.6719 190.973 19.5156 190.973C20.1875 190.973 20.7383 190.789 21.168 190.422C21.5977 190.055 21.8789 189.547 22.0117 188.898L24.5664 188.898L24.6016 188.969C24.4609 190.211 23.9805 191.234 23.1602 192.039C22.3477 192.844 21.1289 193.246 19.5039 193.246ZM32.2773 193.246C31.0586 193.246 30.0117 192.973 29.1367 192.426C28.2617 191.871 27.5898 191.109 27.1211 190.141C26.6523 189.172 26.418 188.055 26.418 186.789L26.418 186.543C26.418 185.285 26.6523 184.172 27.1211 183.203C27.5898 182.234 28.2617 181.473 29.1367 180.918C30.0117 180.363 31.0508 180.086 32.2539 180.086C33.4727 180.086 34.5195 180.363 35.3945 180.918C36.2695 181.465 36.9414 182.227 37.4102 183.203C37.8789 184.172 38.1133 185.285 38.1133 186.543L38.1133 186.789C38.1133 188.062 37.8789 189.184 37.4102 190.152C36.9414 191.121 36.2695 191.879 35.3945 192.426C34.5273 192.973 33.4883 193.246 32.2773 193.246ZM32.2773 190.973C33.2539 190.973 33.9805 190.586 34.457 189.812C34.9336 189.031 35.1719 188.023 35.1719 186.789L35.1719 186.543C35.1719 185.332 34.9297 184.336 34.4453 183.555C33.9687 182.766 33.2383 182.371 32.2539 182.371C31.2773 182.371 30.5508 182.766 30.0742 183.555C29.6055 184.336 29.3711 185.332 29.3711 186.543L29.3711 186.789C29.3711 188.023 29.6055 189.031 30.0742 189.812C30.5508 190.586 31.2852 190.973 32.2773 190.973ZM39.6719 193L39.6719 191.195L41.4414 190.844L41.4414 182.488L39.5781 182.137L39.5781 180.32L44.1484 180.32L44.2891 181.984C44.6953 181.383 45.2109 180.918 45.8359 180.59C46.4609 180.254 47.1836 180.086 48.0039 180.086C48.832 180.086 49.5391 180.273 50.125 180.648C50.7187 181.016 51.168 181.574 51.4727 182.324C51.8633 181.629 52.375 181.082 53.0078 180.684C53.6484 180.285 54.3984 180.086 55.2578 180.086C56.5234 180.086 57.5234 180.52 58.2578 181.387C58.9922 182.254 59.3594 183.566 59.3594 185.324L59.3594 190.844L61.1289 191.195L61.1289 193L54.7422 193L54.7422 191.195L56.4062 190.844L56.4062 185.301C56.4062 184.238 56.2266 183.492 55.8672 183.062C55.5078 182.633 54.9805 182.418 54.2852 182.418C53.6367 182.418 53.1016 182.625 52.6797 183.039C52.2656 183.445 51.9961 183.973 51.8711 184.621L51.8711 190.844L53.4766 191.195L53.4766 193L47.3242 193L47.3242 191.195L48.9297 190.844L48.9297 185.301C48.9297 184.277 48.7461 183.543 48.3789 183.098C48.0117 182.645 47.4805 182.418 46.7852 182.418C46.207 182.418 45.7187 182.535 45.3203 182.77C44.9297 183.004 44.6172 183.336 44.3828 183.766L44.3828 190.844L46.0469 191.195L46.0469 193L39.6719 193ZM73.75 193.246C72.8437 193.246 71.9961 193.16 71.207 192.988C70.4258 192.809 69.6406 192.547 68.8516 192.203L68.8164 188.852L70.9375 188.852L71.3828 190.68C71.7266 190.836 72.0742 190.953 72.4258 191.031C72.7773 191.109 73.1719 191.148 73.6094 191.148C74.4531 191.148 75.0469 191 75.3906 190.703C75.7422 190.406 75.918 190.039 75.918 189.602C75.918 189.187 75.7344 188.828 75.3672 188.523C75.0078 188.219 74.3164 187.957 73.293 187.738C71.7695 187.41 70.6523 186.934 69.9414 186.309C69.2305 185.676 68.875 184.855 68.875 183.848C68.875 183.16 69.0586 182.531 69.4258 181.961C69.8008 181.391 70.3477 180.937 71.0664 180.602C71.793 180.266 72.6836 180.098 73.7383 180.098C74.6992 180.098 75.5508 180.199 76.293 180.402C77.043 180.598 77.6797 180.859 78.2031 181.187L78.2852 184.41L76.1758 184.41L75.8125 182.734C75.3047 182.375 74.6562 182.195 73.8672 182.195C73.2187 182.195 72.707 182.34 72.332 182.629C71.957 182.91 71.7695 183.266 71.7695 183.695C71.7695 184.07 71.918 184.395 72.2148 184.668C72.5117 184.941 73.168 185.191 74.1836 185.418C75.832 185.801 77.0117 186.301 77.7227 186.918C78.4336 187.535 78.7891 188.352 78.7891 189.367C78.7891 190.5 78.375 191.43 77.5469 192.156C76.7187 192.883 75.4531 193.246 73.75 193.246ZM85.9727 193.246C84.6133 193.246 83.5508 192.816 82.7852 191.957C82.0273 191.09 81.6484 189.746 81.6484 187.926L81.6484 182.488L80.2187 182.137L80.2187 180.32L84.6016 180.32L84.6016 187.949C84.6016 189.043 84.7734 189.812 85.1172 190.258C85.4687 190.695 86.0078 190.914 86.7344 190.914C88 190.914 88.9023 190.426 89.4414 189.449L89.4414 182.488L87.8477 182.137L87.8477 180.32L92.3945 180.32L92.3945 190.844L93.8945 191.195L93.8945 193L89.7812 193L89.582 191.277C89.1836 191.91 88.6758 192.398 88.0586 192.742C87.4492 193.078 86.7539 193.246 85.9727 193.246ZM101.16 193.246C99.9727 193.246 98.9414 192.977 98.0664 192.437C97.1992 191.891 96.5273 191.141 96.0508 190.187C95.582 189.227 95.3477 188.121 95.3477 186.871L95.3477 186.461C95.3477 185.234 95.582 184.141 96.0508 183.18C96.5195 182.219 97.1875 181.465 98.0547 180.918C98.9297 180.363 99.9609 180.086 101.148 180.086C102.234 180.086 103.18 180.262 103.984 180.613C104.789 180.957 105.449 181.387 105.965 181.902L105.977 185.289L103.727 185.289L103.293 183.051C103.074 182.824 102.797 182.645 102.461 182.512C102.125 182.371 101.758 182.301 101.359 182.301C100.383 182.301 99.6289 182.687 99.0977 183.461C98.5664 184.227 98.3008 185.227 98.3008 186.461L98.3008 186.871C98.3008 188.215 98.5664 189.234 99.0977 189.93C99.6367 190.625 100.328 190.973 101.172 190.973C101.844 190.973 102.395 190.789 102.824 190.422C103.254 190.055 103.535 189.547 103.668 188.898L106.223 188.898L106.258 188.969C106.117 190.211 105.637 191.234 104.816 192.039C104.004 192.844 102.785 193.246 101.16 193.246ZM113.969 193.246C112.766 193.246 111.723 192.98 110.84 192.449C109.957 191.91 109.27 191.168 108.777 190.223C108.293 189.277 108.051 188.195 108.051 186.977L108.051 186.484C108.051 185.25 108.289 184.152 108.766 183.191C109.25 182.223 109.91 181.465 110.746 180.918C111.59 180.363 112.555 180.086 113.641 180.086C115.352 180.086 116.652 180.594 117.543 181.609C118.441 182.625 118.891 184.02 118.891 185.793L118.891 187.48L111.109 187.48L111.086 187.539C111.133 188.539 111.422 189.363 111.953 190.012C112.484 190.652 113.242 190.973 114.227 190.973C114.914 190.973 115.539 190.879 116.102 190.691C116.664 190.504 117.187 190.238 117.672 189.895L118.586 191.746C118.086 192.176 117.449 192.535 116.676 192.824C115.91 193.105 115.008 193.246 113.969 193.246ZM111.156 185.406L116.066 185.406L116.066 185.102C116.066 184.273 115.871 183.602 115.48 183.086C115.098 182.57 114.496 182.312 113.676 182.312C112.957 182.312 112.375 182.602 111.93 183.18C111.492 183.758 111.223 184.48 111.121 185.348L111.156 185.406ZM125.898 193.246C124.992 193.246 124.145 193.16 123.355 192.988C122.574 192.809 121.789 192.547 121 192.203L120.965 188.852L123.086 188.852L123.531 190.68C123.875 190.836 124.223 190.953 124.574 191.031C124.926 191.109 125.32 191.148 125.758 191.148C126.602 191.148 127.195 191 127.539 190.703C127.891 190.406 128.066 190.039 128.066 189.602C128.066 189.187 127.883 188.828 127.516 188.523C127.156 188.219 126.465 187.957 125.441 187.738C123.918 187.41 122.801 186.934 122.09 186.309C121.379 185.676 121.023 184.855 121.023 183.848C121.023 183.16 121.207 182.531 121.574 181.961C121.949 181.391 122.496 180.937 123.215 180.602C123.941 180.266 124.832 180.098 125.887 180.098C126.848 180.098 127.699 180.199 128.441 180.402C129.191 180.598 129.828 180.859 130.352 181.187L130.434 184.41L128.324 184.41L127.961 182.734C127.453 182.375 126.805 182.195 126.016 182.195C125.367 182.195 124.855 182.34 124.48 182.629C124.105 182.91 123.918 183.266 123.918 183.695C123.918 184.07 124.066 184.395 124.363 184.668C124.66 184.941 125.316 185.191 126.332 185.418C127.98 185.801 129.16 186.301 129.871 186.918C130.582 187.535 130.937 188.352 130.937 189.367C130.937 190.5 130.523 191.43 129.695 192.156C128.867 192.883 127.602 193.246 125.898 193.246ZM137.969 193.246C137.062 193.246 136.215 193.16 135.426 192.988C134.645 192.809 133.859 192.547 133.07 192.203L133.035 188.852L135.156 188.852L135.602 190.68C135.945 190.836 136.293 190.953 136.645 191.031C136.996 191.109 137.391 191.148 137.828 191.148C138.672 191.148 139.266 191 139.609 190.703C139.961 190.406 140.137 190.039 140.137 189.602C140.137 189.187 139.953 188.828 139.586 188.523C139.227 188.219 138.535 187.957 137.512 187.738C135.988 187.41 134.871 186.934 134.16 186.309C133.449 185.676 133.094 184.855 133.094 183.848C133.094 183.16 133.277 182.531 133.645 181.961C134.02 181.391 134.566 180.937 135.285 180.602C136.012 180.266 136.902 180.098 137.957 180.098C138.918 180.098 139.77 180.199 140.512 180.402C141.262 180.598 141.898 180.859 142.422 181.187L142.504 184.41L140.395 184.41L140.031 182.734C139.523 182.375 138.875 182.195 138.086 182.195C137.437 182.195 136.926 182.34 136.551 182.629C136.176 182.91 135.988 183.266 135.988 183.695C135.988 184.07 136.137 184.395 136.434 184.668C136.73 184.941 137.387 185.191 138.402 185.418C140.051 185.801 141.23 186.301 141.941 186.918C142.652 187.535 143.008 188.352 143.008 189.367C143.008 190.5 142.594 191.43 141.766 192.156C140.937 192.883 139.672 193.246 137.969 193.246ZM150.637 193.246C149.418 193.246 148.371 192.973 147.496 192.426C146.621 191.871 145.949 191.109 145.48 190.141C145.012 189.172 144.777 188.055 144.777 186.789L144.777 186.543C144.777 185.285 145.012 184.172 145.48 183.203C145.949 182.234 146.621 181.473 147.496 180.918C148.371 180.363 149.41 180.086 150.613 180.086C151.832 180.086 152.879 180.363 153.754 180.918C154.629 181.465 155.301 182.227 155.77 183.203C156.238 184.172 156.473 185.285 156.473 186.543L156.473 186.789C156.473 188.062 156.238 189.184 155.77 190.152C155.301 191.121 154.629 191.879 153.754 192.426C152.887 192.973 151.848 193.246 150.637 193.246ZM150.637 190.973C151.613 190.973 152.34 190.586 152.816 189.812C153.293 189.031 153.531 188.023 153.531 186.789L153.531 186.543C153.531 185.332 153.289 184.336 152.805 183.555C152.328 182.766 151.598 182.371 150.613 182.371C149.637 182.371 148.91 182.766 148.434 183.555C147.965 184.336 147.73 185.332 147.73 186.543L147.73 186.789C147.73 188.023 147.965 189.031 148.434 189.812C148.91 190.586 149.645 190.973 150.637 190.973ZM158.828 187.234L158.828 175.937L161.781 175.937L161.781 187.234L158.828 187.234ZM158.828 193L158.828 190.258L161.781 190.258L161.781 193L158.828 193Z" fill="white"/>
</svg>
